<svg version="1.1" id="Layer_1" xmlns="http://www.w3.org/2000/svg" xmlns:xlink="http://www.w3.org/1999/xlink" x="0px" y="0px"
	 width="100%" viewBox="0 0 359 276" enable-background="new 0 0 359 276" xml:space="preserve">
<path fill="#FFFFFF" opacity="1.000000" stroke="none" 
	d="
M216.000000,277.000000 
	C144.000015,277.000000 72.500023,277.000000 1.000029,277.000000 
	C1.000019,185.000031 1.000019,93.000061 1.000010,1.000066 
	C120.666618,1.000044 240.333237,1.000044 359.999878,1.000022 
	C359.999939,92.999931 359.999939,184.999863 359.999969,276.999878 
	C312.166656,277.000000 264.333344,277.000000 216.000000,277.000000 
M164.001419,55.001736 
	C164.001419,55.001736 163.986557,55.012589 164.323364,55.508106 
	C164.885330,55.685814 165.447281,55.863522 166.199585,56.464241 
	C166.379562,56.728764 166.618713,56.918865 166.884583,57.794968 
	C166.882782,59.125011 166.880981,60.455051 166.879196,61.785095 
	C168.702606,61.785095 170.526016,61.785095 173.633621,61.785095 
	C171.109375,58.612457 169.582520,56.693420 167.982727,53.996105 
	C165.641388,53.340626 163.300064,52.685150 160.176117,51.968060 
	C158.868866,51.881184 157.561630,51.794308 155.994110,51.203053 
	C155.310165,51.446815 154.626221,51.690578 153.661652,52.481007 
	C153.451279,53.065044 153.240891,53.649082 152.297913,54.121738 
	C150.863434,52.746716 149.428955,51.371689 148.450348,49.655319 
	C148.489014,49.132008 148.527679,48.608700 148.566345,48.085388 
	C148.421631,48.083584 148.276901,48.081779 148.132172,48.079975 
	C148.090012,48.721943 148.047836,49.363907 147.388397,49.947723 
	C146.168259,48.183876 144.948120,46.420033 143.474701,44.290047 
	C142.479767,45.646481 142.168076,45.883060 142.119827,46.164764 
	C140.912903,53.210785 146.587601,54.043530 150.862915,56.663338 
	C150.160187,58.039700 149.457443,59.416058 148.107452,60.534142 
	C142.235962,59.684620 138.760849,63.027672 139.644196,68.651024 
	C131.393799,72.016731 127.267914,78.444817 125.655090,87.520035 
	C125.179779,88.397026 124.704468,89.274025 123.558044,89.866776 
	C122.232918,89.380066 120.907784,88.893364 119.860527,88.508720 
	C119.948807,87.030746 120.027061,85.720657 120.096092,84.565025 
	C117.613922,85.559616 115.802597,86.285408 113.897804,86.725975 
	C113.812958,86.674156 113.728111,86.622330 113.643265,86.570511 
	C113.765831,86.710861 113.888390,86.851219 114.085075,87.699455 
	C115.295074,89.832924 116.466988,91.989159 117.725014,94.093925 
	C119.199860,96.561455 120.749634,98.984200 122.232025,102.117950 
	C121.563911,103.239891 121.130692,104.636986 120.190193,105.439850 
	C113.215393,111.393829 106.139771,117.229691 98.811813,122.734650 
	C97.035034,123.239204 94.219017,119.143692 93.383568,124.118088 
	C92.942291,126.745552 91.810768,129.257095 90.452255,132.043289 
	C90.244835,132.360947 90.037415,132.678604 89.119385,133.017548 
	C86.417770,135.258163 83.716156,137.498764 80.233040,140.387527 
	C83.605774,141.875610 87.176613,143.451096 90.890137,145.899689 
	C91.094360,148.212509 91.222939,150.534958 91.515526,152.836548 
	C93.021019,164.679352 94.552750,176.518890 96.109482,188.355072 
	C96.714272,192.953384 97.408707,197.539917 97.720825,202.705750 
	C86.764862,214.133865 88.794052,230.577255 102.107086,240.079636 
	C121.410950,253.858093 163.677795,249.907623 173.766922,227.706497 
	C173.766922,227.706497 173.890305,227.309372 174.049561,226.496567 
	C174.205460,226.268707 174.361343,226.040833 174.758743,225.698013 
	C174.894165,225.564072 174.957230,225.401917 174.907150,225.022507 
	C174.907150,225.022507 175.090378,224.960632 175.892731,224.994919 
	C177.713638,224.605606 179.534561,224.216293 182.150085,223.793015 
	C194.523453,224.527069 206.911179,225.987625 219.265228,225.743652 
	C227.717926,225.576721 236.417725,223.712982 242.869583,216.046417 
	C248.538010,211.768860 250.156281,205.385391 252.353439,199.011917 
	C254.175308,198.818756 256.400543,198.970947 255.822433,195.990112 
	C259.604706,196.813629 260.542572,194.970123 259.640594,191.060120 
	C258.445557,189.710098 257.250488,188.360077 256.459503,186.680435 
	C256.338745,185.817596 256.217957,184.954758 256.499542,183.681671 
	C255.993408,183.119492 255.487274,182.557312 254.922241,181.222763 
	C257.322876,173.481903 259.723541,165.741058 262.624908,157.531387 
	C262.760834,156.398178 262.896729,155.264984 263.781921,154.007889 
	C266.147644,152.725998 268.513367,151.444092 271.054077,149.654297 
	C271.086151,149.478119 271.118195,149.301941 271.426666,148.933395 
	C271.250397,148.914825 271.074097,148.896240 270.311340,148.623398 
	C266.577026,146.062057 269.037628,144.847336 271.409149,143.550217 
	C272.514709,144.402725 273.596252,145.236694 275.149017,146.434036 
	C276.264252,144.222305 277.171967,142.422104 278.079681,140.621902 
	C277.858398,140.070419 277.637115,139.518936 277.415802,138.967468 
	C274.280640,139.383896 270.389832,138.809967 268.207458,140.475128 
	C265.656219,142.421768 264.594879,146.321106 262.272369,149.446487 
	C261.863281,149.494629 261.454193,149.542770 260.963867,148.795959 
	C258.313782,140.045258 252.593826,134.270050 243.431152,130.741440 
	C243.631882,127.493179 243.832611,124.244911 244.625290,120.549484 
	C244.668655,119.068703 244.712021,117.587914 245.558807,116.041779 
	C246.692688,114.964432 248.031845,114.011742 248.815338,112.721603 
	C249.009918,112.401184 247.406235,110.988701 246.629135,110.078186 
	C245.548859,111.140945 244.351578,112.114067 243.438919,113.305260 
	C242.999832,113.878357 243.097687,114.862854 242.352890,115.918373 
	C241.919708,115.954514 241.486511,115.990654 240.261307,115.965584 
	C239.735580,115.913902 239.209869,115.862221 238.826355,115.372124 
	C238.826355,115.372124 239.141052,115.035378 239.619446,114.638977 
	C239.419968,113.770714 239.220474,112.902451 238.595825,111.607666 
	C238.035797,110.794632 237.475784,109.981590 237.431503,108.773628 
	C238.652847,108.342880 239.912552,107.478798 241.086578,107.582710 
	C242.857727,107.739464 244.569046,108.572029 246.305801,109.117355 
	C246.587036,108.761894 246.868256,108.406425 247.149490,108.050957 
	C246.384415,106.422028 245.619324,104.793098 245.047134,103.574875 
	C240.959671,104.475258 237.482590,105.241188 233.165176,106.023987 
	C229.283249,106.525253 225.401321,107.026527 221.540909,107.525017 
	C221.301956,111.667732 224.655350,118.849739 227.584930,119.922638 
	C231.698334,121.429085 231.803070,123.895035 229.078384,127.075096 
	C224.460571,122.977295 218.748169,119.596626 215.482895,114.612694 
	C210.651321,107.238068 207.557220,98.725113 203.899368,89.909195 
	C203.756012,86.795372 209.541397,85.949898 206.985809,81.466286 
	C206.985809,81.466286 206.917892,81.033112 207.413116,80.647934 
	C206.315369,79.196655 205.217606,77.745384 203.515259,75.494812 
	C202.850311,77.912231 202.416916,79.487831 201.281631,81.101974 
	C200.165756,81.436562 199.049896,81.771149 197.329926,81.805252 
	C193.959595,79.469284 190.861023,76.484055 187.161163,74.935379 
	C179.932877,71.909813 172.368607,69.686935 164.972931,66.518448 
	C165.904770,65.862350 166.836624,65.206253 168.082779,64.328857 
	C166.750641,63.376583 165.384399,62.399921 164.588013,61.049950 
	C164.060730,59.981850 163.533447,58.913746 162.957687,57.341480 
	C163.675400,56.568665 158.797653,55.778404 163.477829,55.047794 
	C163.648865,55.038578 163.819885,55.029358 164.001419,55.001736 
M244.012543,67.990074 
	C244.012543,67.990074 244.010910,67.966545 244.089600,67.318161 
	C244.799118,66.549347 245.508621,65.780533 246.600769,64.613167 
	C246.627136,64.010292 246.653519,63.407413 246.679871,62.804535 
	C246.119812,63.206001 245.559769,63.607468 244.280701,64.081894 
	C243.492325,65.383812 242.703934,66.685730 241.455765,68.352066 
	C241.311005,68.908585 241.166260,69.465103 240.998352,70.704170 
	C240.976562,71.158913 240.954758,71.613655 240.446182,71.993187 
	C240.446182,71.993187 239.953659,71.993813 239.187592,71.948547 
	C237.909668,72.104897 236.631729,72.261246 235.353806,72.417595 
	C235.362564,72.758606 235.371338,73.099617 235.380096,73.440636 
	C236.615875,73.695137 237.851654,73.949638 239.228973,74.865356 
	C240.479767,76.646957 241.730560,78.428558 242.987747,80.799782 
	C242.985321,81.192856 242.982910,81.585922 242.639191,82.506348 
	C242.079742,83.324219 241.520279,84.142082 240.397217,84.534584 
	C238.287979,83.327927 236.178741,82.121262 234.635010,81.238113 
	C234.245743,79.374153 234.424728,76.695892 233.336395,76.000183 
	C232.216553,75.284348 229.860703,76.502083 227.177032,77.051605 
	C229.469833,80.129982 231.233688,81.940842 232.336182,84.090828 
	C234.873352,89.038727 237.719254,88.595512 241.716858,84.950783 
	C242.506516,83.975441 243.296158,83.000092 244.735519,82.073944 
	C246.824265,81.395592 248.913025,80.717232 251.664963,80.021378 
	C252.107025,80.012161 252.549103,80.002945 253.743744,79.909348 
	C255.467316,79.566002 257.255493,79.387970 258.867126,78.758163 
	C259.249664,78.608665 259.040527,76.945236 258.969391,75.294563 
	C257.358826,73.217171 255.748230,71.139778 254.811142,68.922890 
	C255.550232,67.636650 256.289307,66.350418 257.737976,64.986053 
	C260.318115,60.995182 262.898254,57.004314 265.001862,53.750576 
	C262.527557,51.837238 260.911865,50.775127 259.519379,49.474113 
	C256.054382,46.236740 253.574417,46.702278 251.510376,51.047897 
	C250.385193,53.416916 249.213120,55.767792 247.955902,58.068779 
	C246.771545,60.236465 247.424850,61.115173 250.057831,61.666759 
	C251.690140,62.469368 253.322449,63.271980 254.987015,64.783531 
	C254.676926,65.832886 254.366837,66.882240 253.593842,67.400764 
	C252.372314,67.918839 251.150803,68.436905 249.521988,68.982002 
	C249.521988,68.982002 249.113892,68.990189 248.415009,68.914001 
	C247.947723,68.946693 247.480453,68.979385 246.617203,68.976921 
	C246.617203,68.976921 246.222992,68.925713 245.829559,68.424026 
	C245.231720,68.280190 244.633865,68.136345 244.012543,67.990074 
M194.446411,44.936512 
	C193.596985,45.935764 192.747559,46.935020 191.424194,48.307659 
	C190.012543,53.174980 188.076416,46.588398 185.693619,49.671413 
	C191.357178,53.926270 197.046722,58.200657 203.111130,62.756660 
	C206.120224,58.254875 208.552185,54.616493 210.923553,51.068775 
	C208.936325,49.819370 207.338470,48.967678 205.919754,47.881901 
	C204.346054,46.677521 203.041153,45.101604 201.404068,44.010155 
	C200.726700,43.558548 199.490250,43.945477 198.017929,44.007080 
	C197.346756,44.020176 196.675598,44.033272 195.599167,44.056030 
	C195.321960,44.142429 195.125168,44.318684 194.446411,44.936512 
M266.733551,191.006790 
	C271.052887,190.374710 271.635345,188.324463 269.017212,185.031357 
	C267.988617,183.737549 267.050293,182.369415 265.983887,181.108704 
	C262.497894,176.987534 261.270844,177.130508 257.948730,182.475128 
	C260.547974,183.208771 262.983185,183.896118 264.567871,184.343414 
	C265.110199,186.850830 265.559906,188.929947 265.467621,191.058456 
	C265.062927,191.325897 264.658234,191.593338 264.253571,191.860794 
	C264.408112,192.043854 264.562653,192.226913 264.717163,192.409973 
	C265.142548,191.936951 265.567932,191.463928 266.733551,191.006790 
M210.758743,70.587311 
	C208.625351,71.776176 204.416718,69.456055 204.261597,74.456429 
	C206.463654,74.905807 208.510666,75.634727 210.555603,75.628975 
	C211.869370,75.625290 213.180115,74.540359 214.492203,73.940071 
	C213.491745,72.723549 212.491272,71.507034 210.758743,70.587311 
M191.463211,33.355362 
	C190.592178,35.097088 189.721161,36.838810 188.850143,38.580536 
	C190.288727,39.129208 191.727310,39.677883 194.310043,40.662926 
	C193.253326,37.383450 192.665680,35.559662 191.463211,33.355362 
M185.457794,46.967846 
	C189.434174,45.988834 185.463287,42.295773 187.616211,40.400669 
	C186.012558,40.713848 184.287155,41.319145 184.030823,42.306038 
	C183.680389,43.655064 184.447479,45.294365 185.457794,46.967846 
M113.966972,82.664886 
	C113.305771,82.352745 112.644562,82.040596 111.983360,81.728447 
	C111.985977,82.583054 111.988586,83.437660 111.991196,84.292259 
	C112.640640,83.975113 113.290092,83.657967 113.966972,82.664886 
M115.126221,80.609444 
	C115.761612,81.335503 116.396996,82.061562 117.032387,82.787621 
	C117.394852,82.351532 117.757317,81.915443 118.119781,81.479355 
	C117.157532,80.980827 116.195290,80.482307 115.126221,80.609444 
M114.755783,76.700455 
	C114.294243,76.364891 113.832695,76.029327 113.371155,75.693764 
	C113.292038,76.147484 113.212921,76.601212 113.133812,77.054932 
	C113.649086,77.138435 114.164360,77.221947 114.755783,76.700455 
M261.696838,193.335144 
	C261.645142,193.718369 261.593475,194.101593 261.541779,194.484818 
	C261.813599,194.487152 262.085388,194.489471 262.357208,194.491806 
	C262.315857,194.110840 262.274506,193.729858 261.696838,193.335144 
M152.242508,49.412914 
	C151.945877,49.629433 151.649246,49.845947 151.352615,50.062454 
	C151.530884,50.253128 151.709167,50.443798 151.887436,50.634472 
	C152.123611,50.348465 152.359772,50.062458 152.242508,49.412914 
M111.771767,78.817070 
	C111.601143,78.874763 111.430527,78.932449 111.259911,78.990143 
	C111.430519,79.044701 111.601120,79.099251 111.771767,78.817070 
M209.818985,79.235435 
	C209.876724,79.408829 209.934479,79.582230 209.992218,79.755623 
	C210.048218,79.581169 210.104218,79.406723 209.818985,79.235435 
z"/>
<path fill="#252E37" opacity="1.000000" stroke="none" 
	d="
M173.568665,227.796814 
	C163.677795,249.907623 121.410950,253.858093 102.107086,240.079636 
	C88.794052,230.577255 86.764862,214.133865 98.212906,202.299225 
	C100.765900,200.047180 103.336380,198.530777 104.784142,196.289246 
	C108.030670,191.262711 111.129311,186.310257 116.812866,183.586990 
	C117.766769,183.129944 118.183975,181.552795 119.216545,180.776123 
	C126.590378,178.485001 134.034164,176.692108 140.465836,173.091385 
	C145.673172,170.176102 149.662781,165.085663 154.538025,160.942947 
	C156.502045,159.828094 158.959030,159.081421 159.591537,157.570816 
	C162.110916,151.553741 166.864777,152.190063 172.067169,152.911530 
	C178.390762,154.134216 184.273239,155.448776 187.963440,161.480133 
	C188.354202,164.946960 188.725266,168.005798 189.065567,171.465927 
	C189.942978,174.275711 190.851151,176.684219 191.595795,179.452942 
	C191.502380,181.874451 191.308853,183.986221 191.692047,185.987564 
	C192.839294,191.979324 192.544601,197.872421 188.126678,202.280502 
	C181.655731,208.737000 177.677734,216.391617 175.090378,224.960632 
	C175.090378,224.960632 174.907150,225.022507 174.771332,225.141235 
	C174.408569,225.404099 174.369125,225.588425 174.517227,225.812973 
	C174.361343,226.040833 174.205460,226.268707 173.831085,226.902206 
	C173.418198,227.454391 173.403549,227.617371 173.568665,227.796814 
M127.524910,188.998901 
	C127.493935,188.793640 127.462967,188.588394 127.431999,188.383133 
	C127.249100,188.554596 127.066200,188.726059 126.470985,189.130844 
	C126.213890,189.326691 126.015724,189.570465 125.406975,190.209824 
	C125.195946,190.741699 124.984917,191.273575 124.102043,192.030319 
	C118.369858,199.530411 120.333992,208.022110 120.640930,216.269150 
	C122.136024,208.213516 123.631111,200.157898 125.583961,191.764618 
	C125.797279,191.246521 126.010597,190.728409 126.618988,189.948898 
	C126.869011,189.743317 127.055672,189.490875 127.524910,188.998901 
M156.506363,190.146530 
	C156.221909,190.345139 156.039124,190.613098 155.508636,191.142303 
	C155.235123,191.337326 155.037933,191.591537 154.425003,192.238708 
	C154.242279,192.788132 154.059570,193.337540 153.421036,194.076309 
	C153.149033,194.294937 152.984833,194.576492 152.310181,195.245682 
	C149.287827,199.175354 147.777878,203.472931 147.964661,208.574539 
	C148.246262,216.266464 149.190353,224.193359 143.448288,231.097031 
	C143.276733,231.373489 143.105179,231.649963 142.564087,232.069794 
	C142.583710,232.265366 142.603333,232.460922 142.622971,232.656494 
	C142.775192,232.461655 142.927414,232.266800 143.556229,231.919037 
	C143.734039,231.645218 143.911850,231.371384 144.792633,231.014847 
	C146.529861,227.453949 149.388947,224.010773 149.777435,220.308365 
	C150.663666,211.862137 148.818375,203.102875 153.559814,194.923279 
	C153.845200,194.720078 154.023483,194.446915 154.599258,193.789627 
	C154.783905,193.238953 154.968552,192.688263 155.581009,191.895950 
	C155.851974,191.678467 156.012543,191.397797 156.531631,190.875931 
	C156.703812,190.597931 156.875992,190.319946 157.525223,189.895447 
	C157.833023,189.716263 158.022003,189.452072 158.692474,189.088760 
	C159.168915,188.761307 159.645355,188.433853 160.464798,187.907974 
	C160.442749,187.707733 160.420700,187.507492 160.398651,187.307251 
	C160.213303,187.480164 160.027954,187.653076 159.260086,187.902725 
	C158.815826,188.247711 158.371567,188.592697 157.480469,189.142944 
	C157.195770,189.344025 157.024246,189.616409 156.506363,190.146530 
M129.466583,187.682648 
	C129.466583,187.682648 129.603638,187.416107 129.603638,187.416107 
	C129.603638,187.416107 129.290756,187.469604 129.466583,187.682648 
z"/>
<path fill="#2648FA" opacity="1.000000" stroke="none" 
	d="
M203.723373,90.696823 
	C207.557220,98.725113 210.651321,107.238068 215.482895,114.612694 
	C218.748169,119.596626 224.460571,122.977295 229.572906,127.327499 
	C230.376312,127.752464 230.685196,127.925026 231.003357,128.450150 
	C231.014343,131.869690 231.016068,134.936676 230.962524,138.400833 
	C230.652115,141.214279 230.396957,143.630554 230.218994,146.090332 
	C230.296173,146.133835 230.270477,146.309158 230.059753,146.291245 
	C229.756470,146.377808 229.663925,146.482285 229.571381,146.586761 
	C229.780426,146.766815 229.989471,146.946884 230.251312,147.479233 
	C230.128799,148.270401 229.953506,148.709290 229.572968,149.317230 
	C229.272430,149.827988 229.177139,150.169647 229.213165,150.826752 
	C228.847595,152.104889 228.350708,153.067581 227.623657,154.241959 
	C227.304840,155.059540 227.216187,155.665421 227.141159,156.459991 
	C227.154785,156.648651 226.950455,156.967026 226.581665,156.971893 
	C224.157791,155.493073 222.005081,154.125259 220.071625,152.497101 
	C217.497726,150.329636 215.239044,147.773010 212.586578,145.716858 
	C207.702560,141.930832 202.795639,138.122742 197.564957,134.857819 
	C195.035141,133.278732 194.791138,132.015396 196.099625,129.751709 
	C197.413040,127.479492 197.235031,125.906799 194.032898,125.653336 
	C193.302979,124.004387 192.618866,122.684486 191.946869,120.987335 
	C190.992661,119.388817 190.026337,118.167534 188.941650,116.610306 
	C188.021500,114.890068 187.013229,113.583496 186.457413,112.106636 
	C184.906662,107.986259 182.298050,108.242104 178.802353,110.114227 
	C177.982681,111.161110 177.537064,112.187210 177.123016,113.557846 
	C176.722351,114.935852 176.290100,115.969345 175.498535,116.992599 
	C174.153656,116.228218 173.059479,115.579941 172.202591,114.700447 
	C169.421387,111.845909 166.727127,108.906647 164.112396,105.729637 
	C164.471481,104.732132 164.717560,104.004982 165.204742,103.119759 
	C165.636322,102.637535 165.826813,102.313393 166.006729,101.992920 
	C165.996140,101.996597 165.994995,102.019012 166.314743,101.878998 
	C169.091629,97.985710 171.993057,94.365746 170.513779,89.174164 
	C168.912506,89.174164 167.480743,89.174164 166.030396,88.801239 
	C161.334732,83.997246 156.964813,79.148895 151.815872,75.358871 
	C149.985840,74.011826 148.812225,73.340378 149.350342,71.004211 
	C152.170563,69.608444 154.639221,68.334488 157.348938,66.993614 
	C157.780426,66.667900 157.970856,66.409111 158.443161,66.137482 
	C159.100327,66.128235 159.475616,66.131836 160.074432,66.453796 
	C161.846451,66.892006 163.394943,67.011871 164.943451,67.131737 
	C172.368607,69.686935 179.932877,71.909813 187.161163,74.935379 
	C190.861023,76.484055 193.959595,79.469284 197.720581,82.260452 
	C198.064362,83.828529 198.017502,84.941391 197.769989,86.155991 
	C197.320404,86.445221 197.147720,86.687180 196.685822,87.021545 
	C195.060379,88.739685 193.800446,90.419861 192.540512,92.100029 
	C193.021912,92.570587 193.503326,93.041145 193.984726,93.511703 
	C195.701096,92.346382 197.417480,91.181053 199.345581,89.984688 
	C199.871857,89.898384 200.078506,89.718857 200.520752,89.327316 
	C201.817276,89.725296 202.770325,90.211060 203.723373,90.696823 
z"/>
<path fill="#F8F8FA" opacity="1.000000" stroke="none" 
	d="
M229.778214,149.148163 
	C229.953506,148.709290 230.128799,148.270401 230.397980,147.285583 
	C230.491867,146.739639 230.270477,146.309158 230.270477,146.309158 
	C230.270477,146.309158 230.296173,146.133835 230.547928,145.984039 
	C231.726364,144.169113 232.653061,142.504013 233.938202,140.943237 
	C234.939087,141.377563 235.581512,141.707520 236.467102,142.040009 
	C237.033630,142.044174 237.356979,142.049103 238.069214,142.094391 
	C242.277039,142.974274 242.326508,145.817734 241.672668,148.704575 
	C239.531998,158.155762 237.237823,167.572174 234.953369,177.254547 
	C234.969925,177.665588 235.035767,177.824036 235.044891,178.199646 
	C234.988190,178.416840 234.950897,178.864227 234.625931,179.025848 
	C231.829086,183.477524 229.357208,187.767578 226.509705,192.151917 
	C215.676315,193.270035 207.547348,201.486389 206.482605,211.984375 
	C199.981155,214.916702 193.758972,217.625793 187.588898,220.448807 
	C185.444733,221.429825 183.429565,222.692795 181.355469,223.826996 
	C179.534561,224.216293 177.713638,224.605606 175.491547,224.977783 
	C177.677734,216.391617 181.655731,208.737000 188.126678,202.280502 
	C192.544601,197.872421 192.839294,191.979324 191.692047,185.987564 
	C191.308853,183.986221 191.502380,181.874451 191.788635,179.145935 
	C199.923080,174.993576 207.701187,171.508469 215.679428,168.366974 
	C217.384109,169.718903 218.888657,170.727188 220.203049,171.608047 
	C221.529510,174.169540 222.869537,176.757202 224.209549,179.344879 
	C224.839920,179.123184 225.470291,178.901489 226.100647,178.679794 
	C225.718536,172.652542 225.336426,166.625275 225.055969,160.302734 
	C225.755234,158.993973 226.352844,157.980499 226.950470,156.967026 
	C226.950455,156.967026 227.154785,156.648651 227.425873,156.288834 
	C227.749237,155.296097 227.801544,154.663193 227.853821,154.030273 
	C228.350708,153.067581 228.847595,152.104889 229.498138,150.725250 
	C229.693954,149.921600 229.736084,149.534882 229.778214,149.148163 
z"/>
<path fill="#183CF4" opacity="1.000000" stroke="none" 
	d="
M118.849167,180.493210 
	C118.183975,181.552795 117.766769,183.129944 116.812866,183.586990 
	C111.129311,186.310257 108.030670,191.262711 104.784142,196.289246 
	C103.336380,198.530777 100.765900,200.047180 98.383644,202.012253 
	C97.408707,197.539917 96.714272,192.953384 96.109482,188.355072 
	C94.552750,176.518890 93.021019,164.679352 91.515526,152.836548 
	C91.222939,150.534958 91.094360,148.212509 90.915550,145.101715 
	C93.268997,141.930038 95.597038,139.556320 98.059570,136.916733 
	C98.507668,136.415848 98.821281,136.180832 99.445618,135.840927 
	C100.849693,133.820343 101.943062,131.904663 103.308258,130.186035 
	C104.053398,130.815353 104.674438,131.708817 104.978096,131.611542 
	C110.546364,129.827820 113.756096,133.276901 117.266479,136.639862 
	C118.454704,137.778183 120.743378,137.767822 122.454971,138.642181 
	C120.612144,144.568909 118.843483,150.135864 116.729279,155.983444 
	C116.573486,161.927948 116.763229,167.591843 116.966805,173.632721 
	C117.603485,176.170898 118.226326,178.332047 118.849167,180.493210 
z"/>
<path fill="#1E42F7" opacity="1.000000" stroke="none" 
	d="
M122.529144,138.282410 
	C120.743378,137.767822 118.454704,137.778183 117.266479,136.639862 
	C113.756096,133.276901 110.546364,129.827820 104.978096,131.611542 
	C104.674438,131.708817 104.053398,130.815353 103.164520,129.849014 
	C101.531227,127.244194 100.313522,125.173424 99.095818,123.102654 
	C106.139771,117.229691 113.215393,111.393829 120.190193,105.439850 
	C121.130692,104.636986 121.563911,103.239891 122.522263,101.483955 
	C123.273453,100.481361 123.715515,99.826965 124.198738,99.795013 
	C126.021935,99.674461 127.858513,99.756256 129.690079,99.762306 
	C129.028229,97.947594 128.386566,96.125076 127.689880,94.323837 
	C127.521759,93.889191 127.171448,93.525017 127.213882,93.122803 
	C133.719086,98.092010 139.915329,103.066841 145.972351,108.348969 
	C138.680420,117.157623 131.527725,125.658981 124.047867,134.270325 
	C123.556168,135.230164 123.391617,136.080017 123.184937,137.188995 
	C122.938255,137.726227 122.733696,138.004318 122.529144,138.282410 
z"/>
<path fill="#2346FA" opacity="1.000000" stroke="none" 
	d="
M146.111572,108.041672 
	C139.915329,103.066841 133.719086,98.092010 127.230682,93.110138 
	C126.938515,93.103096 126.910477,93.117287 126.938362,92.705681 
	C126.649361,90.531540 126.332474,88.769005 126.015594,87.006470 
	C127.267914,78.444817 131.393799,72.016731 140.238480,68.427742 
	C143.554764,69.178314 146.276764,70.152168 148.998764,71.126015 
	C148.812225,73.340378 149.985840,74.011826 151.815872,75.358871 
	C156.964813,79.148895 161.334732,83.997246 165.843842,89.067215 
	C164.442688,91.161026 163.209503,92.615936 161.979889,94.282387 
	C161.983459,94.493927 161.972702,94.916931 161.958252,95.192551 
	C161.934265,95.651917 161.924713,95.835663 161.521255,96.012680 
	C156.079300,96.624603 153.201462,99.934830 150.948822,104.394730 
	C150.533829,105.085754 150.212860,105.519096 149.596710,106.082626 
	C148.238205,106.822441 147.174896,107.432060 146.111572,108.041672 
z"/>
<path fill="#1F41F5" opacity="1.000000" stroke="none" 
	d="
M181.752777,223.809998 
	C183.429565,222.692795 185.444733,221.429825 187.588898,220.448807 
	C193.758972,217.625793 199.981155,214.916702 206.833023,211.992065 
	C211.629486,208.470352 215.775787,205.119400 220.133011,202.073410 
	C225.982956,203.755890 230.407852,206.738342 233.507721,211.772064 
	C235.425827,214.886795 238.268661,216.687576 242.172882,216.068695 
	C236.417725,223.712982 227.717926,225.576721 219.265228,225.743652 
	C206.911179,225.987625 194.523453,224.527069 181.752777,223.809998 
z"/>
<path fill="#1F42F8" opacity="1.000000" stroke="none" 
	d="
M242.521240,216.057556 
	C238.268661,216.687576 235.425827,214.886795 233.507721,211.772064 
	C230.407852,206.738342 225.982956,203.755890 220.288239,201.789551 
	C222.450150,198.153030 224.667740,195.105331 226.885345,192.057648 
	C229.357208,187.767578 231.829086,183.477524 234.699463,179.399551 
	C235.873642,180.071274 236.612717,180.613419 237.431213,180.976471 
	C241.312393,182.698059 245.215240,184.370773 249.005005,186.333618 
	C248.598801,186.850983 248.297943,187.095657 247.765839,187.313782 
	C247.161819,187.539536 246.789062,187.791824 246.083755,188.052734 
	C245.547607,188.149216 245.343994,188.237076 244.785660,188.404541 
	C243.643265,189.880676 241.989944,191.495529 242.274017,192.621735 
	C242.683929,194.246918 244.265625,195.888458 245.776962,196.842026 
	C247.521240,197.942520 249.732544,198.302780 251.741043,198.984497 
	C250.156281,205.385391 248.538010,211.768860 242.521240,216.057556 
z"/>
<path fill="#2447F8" opacity="1.000000" stroke="none" 
	d="
M249.110367,186.060913 
	C245.215240,184.370773 241.312393,182.698059 237.431213,180.976471 
	C236.612717,180.613419 235.873642,180.071274 235.024445,179.237946 
	C234.950897,178.864227 234.988190,178.416840 235.261017,178.070862 
	C235.711990,177.442413 235.890152,177.159973 236.310089,176.636780 
	C238.705490,167.263000 240.859100,158.129974 243.376282,149.004486 
	C247.191589,151.351334 250.643326,153.690643 253.979385,156.347046 
	C252.600159,159.274536 253.536285,159.997299 256.144073,159.360931 
	C258.129852,158.876373 260.130280,158.451584 262.124176,158.000183 
	C259.723541,165.741058 257.322876,173.481903 254.825623,181.856384 
	C254.659912,183.018753 254.590820,183.547516 254.156265,184.060730 
	C252.844589,184.697418 251.898376,185.349655 250.970032,185.990219 
	C250.987915,185.978561 251.018707,185.949005 250.751389,186.012695 
	C250.306320,186.121338 250.128555,186.166290 249.748047,186.132568 
	C249.545288,186.053894 249.110367,186.060913 249.110367,186.060913 
z"/>
<path fill="#2648FA" opacity="1.000000" stroke="none" 
	d="
M254.095047,156.029968 
	C250.643326,153.690643 247.191589,151.351334 243.361328,148.666321 
	C243.019531,147.871063 243.056274,147.421524 243.298187,146.831192 
	C243.389496,146.144241 243.275665,145.598068 243.126923,144.660629 
	C243.123016,143.485443 243.154022,142.701538 243.424316,141.658585 
	C243.440018,139.598251 243.216431,137.796967 242.959534,135.692657 
	C242.924118,134.985153 242.921997,134.580643 243.035919,133.887161 
	C243.432343,132.827820 243.712708,132.057480 243.993088,131.287125 
	C252.593826,134.270050 258.313782,140.045258 260.911194,149.435089 
	C260.269684,150.700653 259.680847,151.327087 258.973755,152.272842 
	C257.268646,153.738098 255.681854,154.884033 254.095047,156.029968 
z"/>
<path fill="#EBECEC" opacity="1.000000" stroke="none" 
	d="
M198.508072,43.951042 
	C199.490250,43.945477 200.726700,43.558548 201.404068,44.010155 
	C203.041153,45.101604 204.346054,46.677521 205.919754,47.881901 
	C207.338470,48.967678 208.936325,49.819370 210.923553,51.068775 
	C208.552185,54.616493 206.120224,58.254875 203.111130,62.756660 
	C197.046722,58.200657 191.357178,53.926270 185.693619,49.671413 
	C188.076416,46.588398 190.012543,53.174980 191.667542,48.518970 
	C192.189438,50.090496 192.468002,51.450710 192.751083,52.832954 
	C199.818924,51.069572 200.718536,49.555347 198.508072,43.951042 
z"/>
<path fill="#1F41F5" opacity="1.000000" stroke="none" 
	d="
M243.712128,131.014282 
	C243.712708,132.057480 243.432343,132.827820 242.688034,133.859100 
	C241.757599,134.137512 241.291107,134.155014 240.509903,134.122131 
	C239.775360,134.007034 239.355499,133.942337 238.792740,133.666473 
	C238.162979,133.374252 237.676147,133.293182 236.799683,133.160904 
	C235.891281,133.144455 235.372513,133.179214 234.524689,133.330658 
	C233.734146,134.966019 233.272659,136.484665 232.512177,138.003387 
	C231.814713,138.003525 231.416245,138.003586 231.017792,138.003662 
	C231.016068,134.936676 231.014343,131.869690 231.326920,128.189331 
	C232.580841,124.352646 229.753342,119.772804 235.424469,118.043777 
	C237.433929,117.620850 239.066116,117.271576 240.974426,117.053802 
	C242.178146,118.455750 243.105743,119.726196 244.033340,120.996643 
	C243.832611,124.244911 243.631882,127.493179 243.712128,131.014282 
z"/>
<path fill="#E3E4E3" opacity="1.000000" stroke="none" 
	d="
M126.921715,93.115768 
	C127.171448,93.525017 127.521759,93.889191 127.689880,94.323837 
	C128.386566,96.125076 129.028229,97.947594 129.690079,99.762306 
	C127.858513,99.756256 126.021935,99.674461 124.198738,99.795013 
	C123.715515,99.826965 123.273453,100.481361 122.539703,101.138168 
	C120.749634,98.984200 119.199860,96.561455 117.725014,94.093925 
	C116.466988,91.989159 115.295074,89.832924 114.042542,87.349777 
	C114.000000,87.000107 113.991280,87.011192 113.991280,87.011192 
	C115.802597,86.285408 117.613922,85.559616 120.096092,84.565025 
	C120.027061,85.720657 119.948807,87.030746 119.860527,88.508720 
	C120.907784,88.893364 122.232918,89.380066 123.860603,90.339935 
	C125.078934,91.581154 125.994705,92.349220 126.910477,93.117287 
	C126.910477,93.117287 126.938515,93.103096 126.921715,93.115768 
z"/>
<path fill="#DCDEDE" opacity="1.000000" stroke="none" 
	d="
M149.350342,71.004211 
	C146.276764,70.152168 143.554764,69.178314 140.490662,68.197517 
	C138.760849,63.027672 142.235962,59.684620 148.527481,60.740143 
	C148.947510,60.946144 149.138550,61.097298 149.168457,61.454308 
	C150.186401,65.262527 151.289078,68.525963 156.092224,66.183670 
	C156.517334,66.637764 156.812592,66.849144 157.107864,67.060532 
	C154.639221,68.334488 152.170563,69.608444 149.350342,71.004211 
z"/>
<path fill="#F4F4F5" opacity="1.000000" stroke="none" 
	d="
M241.021515,70.021622 
	C241.166260,69.465103 241.311005,68.908585 242.035858,68.180328 
	C243.080948,67.994583 243.545929,67.980560 244.010910,67.966537 
	C244.010910,67.966545 244.012543,67.990074 244.025970,68.309929 
	C244.767258,68.728424 245.495132,68.827072 246.222992,68.925720 
	C246.222992,68.925713 246.617203,68.976921 246.876404,69.360947 
	C248.710419,70.497978 250.300247,71.221573 251.854858,72.014267 
	C252.907700,72.551102 253.900726,73.203880 254.938995,73.770935 
	C256.317749,74.523956 257.714508,75.243988 259.103546,75.978195 
	C259.040527,76.945236 259.249664,78.608665 258.867126,78.758163 
	C257.255493,79.387970 255.467316,79.566002 253.260315,79.698624 
	C252.304398,79.245438 251.831909,79.002975 251.359406,78.760521 
	C251.240189,79.186638 251.120972,79.612762 251.001770,80.038879 
	C248.913025,80.717232 246.824265,81.395592 244.134033,82.032974 
	C243.348541,81.987663 243.164520,81.983330 242.980484,81.978996 
	C242.982910,81.585922 242.985321,81.192856 243.377502,80.436005 
	C245.135345,79.250740 246.503433,78.429253 247.871521,77.607773 
	C246.247009,76.019531 244.622498,74.431297 242.991364,72.503479 
	C242.330322,71.449814 241.675919,70.735718 241.021515,70.021622 
z"/>
<path fill="#EBECEC" opacity="1.000000" stroke="none" 
	d="
M98.953812,122.918655 
	C100.313522,125.173424 101.531227,127.244194 102.892685,129.651978 
	C101.943062,131.904663 100.849693,133.820343 99.348465,135.462769 
	C97.992966,130.049347 93.723000,132.749832 90.990891,131.820984 
	C91.810768,129.257095 92.942291,126.745552 93.383568,124.118088 
	C94.219017,119.143692 97.035034,123.239204 98.953812,122.918655 
z"/>
<path fill="#EBECEC" opacity="1.000000" stroke="none" 
	d="
M97.925072,137.182602 
	C95.597038,139.556320 93.268997,141.930038 90.844208,144.665161 
	C87.176613,143.451096 83.605774,141.875610 80.233040,140.387527 
	C83.716156,137.498764 86.417770,135.258163 89.556931,133.354462 
	C91.356735,137.765610 94.568108,137.639465 97.925072,137.182602 
z"/>
<path fill="#E3E4E3" opacity="1.000000" stroke="none" 
	d="
M249.778564,61.022003 
	C247.424850,61.115173 246.771545,60.236465 247.955902,58.068779 
	C249.213120,55.767792 250.385193,53.416916 251.510376,51.047897 
	C253.574417,46.702278 256.054382,46.236740 259.519379,49.474113 
	C260.911865,50.775127 262.527557,51.837238 265.001862,53.750576 
	C262.898254,57.004314 260.318115,60.995182 257.137939,64.872406 
	C256.307465,64.454872 256.077057,64.150978 256.084930,63.577393 
	C256.880402,61.882332 257.437592,60.456966 258.275024,59.101700 
	C263.914185,56.737961 257.550171,54.649792 258.803864,52.384060 
	C256.661682,52.223347 254.963394,52.095932 252.962784,51.945839 
	C252.716507,53.623692 252.458145,55.383881 251.990921,57.413078 
	C251.114227,58.795395 250.446396,59.908699 249.778564,61.022003 
z"/>
<path fill="#F4F4F5" opacity="1.000000" stroke="none" 
	d="
M235.047195,118.117432 
	C229.753342,119.772804 232.580841,124.352646 231.317657,127.836777 
	C230.685196,127.925026 230.376312,127.752464 229.922241,127.357658 
	C231.803070,123.895035 231.698334,121.429085 227.584930,119.922638 
	C224.655350,118.849739 221.301956,111.667732 221.540909,107.525017 
	C225.401321,107.026527 229.283249,106.525253 233.563416,106.315018 
	C233.633316,107.327927 233.304993,108.049805 232.761856,108.894043 
	C232.547043,109.016403 232.071335,109.151154 231.887299,108.894196 
	C229.492416,109.888000 227.281586,111.138748 224.722107,112.586746 
	C227.495132,115.001312 229.177200,116.465935 230.662277,117.759056 
	C231.996353,117.406914 233.368469,117.044731 234.817963,116.541336 
	C234.895340,116.400108 235.213882,116.447578 235.143234,116.863235 
	C235.064117,117.558411 235.055664,117.837921 235.047195,118.117432 
z"/>
<path fill="#EBECEC" opacity="1.000000" stroke="none" 
	d="
M271.150238,149.125778 
	C271.118195,149.301941 271.086151,149.478119 270.625671,149.947906 
	C267.760559,149.952118 265.323853,149.662704 262.887177,149.373291 
	C264.594879,146.321106 265.656219,142.421768 268.207458,140.475128 
	C270.389832,138.809967 274.280640,139.383896 277.415802,138.967468 
	C277.637115,139.518936 277.858398,140.070419 278.079681,140.621902 
	C277.171967,142.422104 276.264252,144.222305 275.149017,146.434036 
	C273.596252,145.236694 272.514709,144.402725 271.409149,143.550217 
	C269.037628,144.847336 266.577026,146.062057 270.665100,148.815201 
	C271.018860,149.007004 271.150238,149.125778 271.150238,149.125778 
z"/>
<path fill="#EBECEC" opacity="1.000000" stroke="none" 
	d="
M241.041122,85.040497 
	C237.719254,88.595512 234.873352,89.038727 232.336182,84.090828 
	C231.233688,81.940842 229.469833,80.129982 227.177032,77.051605 
	C229.860703,76.502083 232.216553,75.284348 233.336395,76.000183 
	C234.424728,76.695892 234.245743,79.374153 234.635010,81.238113 
	C236.178741,82.121262 238.287979,83.327927 240.699219,84.767807 
	C241.001236,85.001022 241.041122,85.040497 241.041122,85.040497 
z"/>
<path fill="#E3E4E3" opacity="1.000000" stroke="none" 
	d="
M266.009613,191.009064 
	C265.559906,188.929947 265.110199,186.850830 264.567871,184.343414 
	C262.983185,183.896118 260.547974,183.208771 257.948730,182.475128 
	C261.270844,177.130508 262.497894,176.987534 265.983887,181.108704 
	C267.050293,182.369415 267.988617,183.737549 269.017212,185.031357 
	C271.635345,188.324463 271.052887,190.374710 266.366943,191.003540 
	C266.000336,191.000290 266.009613,191.009064 266.009613,191.009064 
z"/>
<path fill="#2445E8" opacity="1.000000" stroke="none" 
	d="
M256.055420,187.010071 
	C257.250488,188.360077 258.445557,189.710098 259.555786,191.693298 
	C257.640778,192.888474 255.810547,193.450485 253.973541,194.006699 
	C253.966766,194.000900 253.955048,194.018707 253.844208,193.810333 
	C253.537003,193.344131 253.287018,193.158493 252.996490,193.028961 
	C253.009537,193.012878 252.968170,193.011505 252.944397,192.741364 
	C252.614334,192.310272 252.308029,192.149338 252.001053,191.995224 
	C252.000381,192.002029 252.014160,191.996750 251.916382,191.765076 
	C251.547775,191.345306 251.276962,191.157211 250.966949,190.721893 
	C250.881531,190.314346 250.835297,190.154007 250.856354,189.716949 
	C250.811310,189.091293 250.698944,188.742355 250.632599,188.270218 
	C250.737778,187.976318 250.750641,187.802200 250.931122,187.356995 
	C251.217621,186.953232 251.373001,186.797195 251.346024,186.685028 
	C251.284241,186.428299 251.133392,186.193008 251.018707,185.949005 
	C251.018707,185.949005 250.987915,185.978561 251.139893,186.367325 
	C252.879730,186.840744 254.467575,186.925400 256.055420,187.010071 
z"/>
<path fill="#2E4BDC" opacity="1.000000" stroke="none" 
	d="
M198.263000,43.979061 
	C200.718536,49.555347 199.818924,51.069572 192.751083,52.832954 
	C192.468002,51.450710 192.189438,50.090496 191.904495,48.332279 
	C192.747559,46.935020 193.596985,45.935764 194.933731,44.762840 
	C195.706512,44.506012 195.900970,44.325077 196.004425,44.046368 
	C196.675598,44.033272 197.346756,44.020176 198.263000,43.979061 
z"/>
<path fill="#2445E8" opacity="1.000000" stroke="none" 
	d="
M242.998001,72.843063 
	C244.622498,74.431297 246.247009,76.019531 247.871521,77.607773 
	C246.503433,78.429253 245.135345,79.250740 243.374298,80.141190 
	C241.730560,78.428558 240.479767,76.646957 239.361481,74.307251 
	C239.647217,73.164040 239.800430,72.578926 239.953659,71.993813 
	C239.953659,71.993813 240.446182,71.993187 240.814880,72.324234 
	C241.788391,72.717865 242.393188,72.780464 242.998001,72.843063 
z"/>
<path fill="#E3E4E3" opacity="1.000000" stroke="none" 
	d="
M151.023117,55.995224 
	C146.587601,54.043530 140.912903,53.210785 142.119827,46.164764 
	C142.168076,45.883060 142.479767,45.646481 143.474701,44.290047 
	C144.948120,46.420033 146.168259,48.183876 147.694290,49.973942 
	C148.000183,50.000160 147.994476,49.996662 147.994476,49.996666 
	C149.428955,51.371689 150.863434,52.746716 152.655258,54.331917 
	C153.012604,54.542095 152.987915,54.856468 153.025833,55.080521 
	C153.063751,55.304573 153.239395,55.719364 152.873108,55.789230 
	C152.012253,55.904472 151.517685,55.949848 151.023117,55.995224 
z"/>
<path fill="#F8F8FA" opacity="1.000000" stroke="none" 
	d="
M211.124771,70.438919 
	C212.491272,71.507034 213.491745,72.723549 214.492203,73.940071 
	C213.180115,74.540359 211.869370,75.625290 210.555603,75.628975 
	C208.510666,75.634727 206.463654,74.905807 204.261597,74.456429 
	C204.416718,69.456055 208.625351,71.776176 211.124771,70.438919 
z"/>
<path fill="#E7E8E9" opacity="1.000000" stroke="none" 
	d="
M253.979385,156.347031 
	C255.681854,154.884033 257.268646,153.738098 259.324829,152.296234 
	C260.873657,152.710785 261.953156,153.421280 263.032654,154.131775 
	C262.896729,155.264984 262.760834,156.398178 262.374542,157.765778 
	C260.130280,158.451584 258.129852,158.876373 256.144073,159.360931 
	C253.536285,159.997299 252.600159,159.274536 253.979385,156.347031 
z"/>
<path fill="#EBECEC" opacity="1.000000" stroke="none" 
	d="
M232.976669,108.771698 
	C233.304993,108.049805 233.633316,107.327927 233.983582,106.306580 
	C237.482590,105.241188 240.959671,104.475258 245.047134,103.574875 
	C245.619324,104.793098 246.384415,106.422028 247.149490,108.050957 
	C246.868256,108.406425 246.587036,108.761894 246.305801,109.117355 
	C244.569046,108.572029 242.857727,107.739464 241.086578,107.582710 
	C239.912552,107.478798 238.652847,108.342880 236.778564,108.903679 
	C235.075958,108.946388 234.026321,108.859039 232.976669,108.771698 
z"/>
<path fill="#2E4BDC" opacity="1.000000" stroke="none" 
	d="
M232.761856,108.894051 
	C234.026321,108.859039 235.075958,108.946388 236.520691,109.101143 
	C237.475784,109.981590 238.035797,110.794632 238.802368,112.195084 
	C239.052948,113.533455 239.097000,114.284416 239.141052,115.035378 
	C239.141052,115.035378 238.826355,115.372124 238.458069,115.695694 
	C237.131165,116.162041 236.172516,116.304817 235.213882,116.447586 
	C235.213882,116.447578 234.895340,116.400108 234.696045,116.237183 
	C233.635117,115.052925 232.773483,114.031601 231.947174,112.636391 
	C231.924103,111.515846 231.865723,110.769196 231.903198,109.813744 
	C231.999069,109.604942 232.071335,109.151154 232.071335,109.151154 
	C232.071335,109.151154 232.547043,109.016403 232.761856,108.894051 
z"/>
<path fill="#EBECEC" opacity="1.000000" stroke="none" 
	d="
M252.047241,198.998199 
	C249.732544,198.302780 247.521240,197.942520 245.776962,196.842026 
	C244.265625,195.888458 242.683929,194.246918 242.274017,192.621735 
	C241.989944,191.495529 243.643265,189.880676 244.766174,188.777557 
	C244.874146,190.485458 244.646896,191.899963 244.322449,193.919449 
	C247.566483,194.613907 250.808319,195.307877 254.275482,195.996643 
	C254.500809,195.991409 254.951370,195.977386 254.951370,195.977386 
	C256.400543,198.970947 254.175308,198.818756 252.047241,198.998199 
z"/>
<path fill="#4D5EA4" opacity="1.000000" stroke="none" 
	d="
M263.407288,154.069824 
	C261.953156,153.421280 260.873657,152.710785 259.443085,151.976913 
	C259.680847,151.327087 260.269684,150.700653 260.951782,149.832565 
	C261.454193,149.542770 261.863281,149.494629 262.579773,149.409882 
	C265.323853,149.662704 267.760559,149.952118 270.538177,150.201859 
	C268.513367,151.444092 266.147644,152.725998 263.407288,154.069824 
z"/>
<path fill="#E7E8E9" opacity="1.000000" stroke="none" 
	d="
M259.036469,75.636383 
	C257.714508,75.243988 256.317749,74.523956 254.938995,73.770935 
	C253.900726,73.203880 252.907700,72.551102 251.854858,72.014267 
	C250.300247,71.221573 248.710419,70.497978 247.074371,69.378525 
	C247.480453,68.979385 247.947723,68.946693 248.824966,69.117958 
	C249.466385,69.199608 249.697830,69.077301 249.929276,68.954987 
	C251.150803,68.436905 252.372314,67.918839 253.826416,67.950699 
	C254.085205,68.687881 254.111420,68.875137 254.137650,69.062393 
	C255.748230,71.139778 257.358826,73.217171 259.036469,75.636383 
z"/>
<path fill="#2E4BDC" opacity="1.000000" stroke="none" 
	d="
M257.994751,59.031597 
	C257.437592,60.456966 256.880402,61.882332 255.849243,63.582520 
	C255.375290,63.857334 254.954758,64.074585 254.954758,64.074585 
	C253.322449,63.271980 251.690140,62.469368 249.918198,61.344383 
	C250.446396,59.908699 251.114227,58.795395 252.323578,57.407391 
	C253.538376,57.105915 254.211639,57.079136 255.028534,57.252766 
	C255.429276,57.664604 255.715591,57.823368 256.010620,57.952751 
	C255.990082,57.976040 256.051361,57.966160 256.119415,58.271881 
	C256.781586,58.718044 257.375702,58.858486 257.979187,59.003754 
	C257.988586,59.008583 257.994751,59.031593 257.994751,59.031597 
z"/>
<path fill="#2445E8" opacity="1.000000" stroke="none" 
	d="
M98.059570,136.916733 
	C94.568108,137.639465 91.356735,137.765610 89.912231,133.343811 
	C90.037415,132.678604 90.244835,132.360947 90.721573,131.932129 
	C93.723000,132.749832 97.992966,130.049347 99.037750,135.567688 
	C98.821281,136.180832 98.507668,136.415848 98.059570,136.916733 
z"/>
<path fill="#F4F4F5" opacity="1.000000" stroke="none" 
	d="
M162.964935,55.016342 
	C158.797653,55.778404 163.675400,56.568665 162.947128,57.960941 
	C162.918640,59.068905 162.900711,59.557411 162.557556,60.028221 
	C161.487503,59.671963 160.742661,59.333393 159.994934,58.592682 
	C160.314270,56.136909 160.636490,54.083290 160.958725,52.029671 
	C163.300064,52.685150 165.641388,53.340626 167.747528,54.584396 
	C167.313873,55.793308 167.115448,56.413929 166.917023,57.034550 
	C166.618713,56.918865 166.379562,56.728764 165.942200,55.994949 
	C165.118713,55.354633 164.552643,55.183613 163.986557,55.012589 
	C163.986557,55.012589 164.001419,55.001736 163.926941,54.811005 
	C163.556625,54.752296 163.260788,54.884315 162.964935,55.016342 
z"/>
<path fill="#DCDEDE" opacity="1.000000" stroke="none" 
	d="
M160.567413,51.998863 
	C160.636490,54.083290 160.314270,56.136909 159.677124,58.574188 
	C158.584641,58.631554 157.807098,58.305264 157.017059,57.677193 
	C156.157288,57.057457 155.309967,56.739506 154.254364,56.238823 
	C153.905991,55.935623 153.765945,55.815163 153.606842,55.506409 
	C153.438736,55.098209 153.238785,54.944328 152.987915,54.856468 
	C152.987915,54.856468 153.012604,54.542095 153.021561,54.387611 
	C153.240891,53.649082 153.451279,53.065044 154.190857,52.214474 
	C155.231506,51.867771 155.742950,51.787605 156.254379,51.707436 
	C157.561630,51.794308 158.868866,51.881184 160.567413,51.998863 
z"/>
<path fill="#EBECEC" opacity="1.000000" stroke="none" 
	d="
M242.952393,115.661041 
	C243.097687,114.862854 242.999832,113.878357 243.438919,113.305260 
	C244.351578,112.114067 245.548859,111.140945 246.629135,110.078186 
	C247.406235,110.988701 249.009918,112.401184 248.815338,112.721603 
	C248.031845,114.011742 246.692688,114.964432 244.856995,115.996780 
	C243.754257,115.854866 243.353317,115.757957 242.952393,115.661041 
z"/>
<path fill="#DCDEDE" opacity="1.000000" stroke="none" 
	d="
M166.900803,57.414757 
	C167.115448,56.413929 167.313873,55.793308 167.783997,54.973534 
	C169.582520,56.693420 171.109375,58.612457 173.633621,61.785095 
	C170.526016,61.785095 168.702606,61.785095 166.879196,61.785095 
	C166.880981,60.455051 166.882782,59.125011 166.900803,57.414757 
M168.417130,59.442631 
	C168.417130,59.442631 168.531052,59.355797 168.417130,59.442631 
z"/>
<path fill="#EBECEC" opacity="1.000000" stroke="none" 
	d="
M191.770615,33.545616 
	C192.665680,35.559662 193.253326,37.383450 194.310043,40.662926 
	C191.727310,39.677883 190.288727,39.129208 188.850143,38.580536 
	C189.721161,36.838810 190.592178,35.097088 191.770615,33.545616 
z"/>
<path fill="#F9F9FA" opacity="1.000000" stroke="none" 
	d="
M203.811371,90.303009 
	C202.770325,90.211060 201.817276,89.725296 200.469269,88.964729 
	C200.042023,88.203186 200.009735,87.716446 200.166382,87.154648 
	C200.630646,86.999420 200.833755,86.831810 201.276459,86.404755 
	C203.379562,84.789864 205.170853,83.346977 206.962143,81.904091 
	C209.541397,85.949898 203.756012,86.795372 203.811371,90.303009 
z"/>
<path fill="#F4F4F5" opacity="1.000000" stroke="none" 
	d="
M164.958191,66.825089 
	C163.394943,67.011871 161.846451,66.892006 160.236099,66.168472 
	C161.134903,64.036041 162.095551,62.507271 163.307983,61.065243 
	C163.712585,61.242409 163.865372,61.332832 164.018143,61.423256 
	C165.384399,62.399921 166.750641,63.376583 168.082779,64.328857 
	C166.836624,65.206253 165.904770,65.862350 164.958191,66.825089 
z"/>
<path fill="#EBECEC" opacity="1.000000" stroke="none" 
	d="
M185.096680,46.888542 
	C184.447479,45.294365 183.680389,43.655064 184.030823,42.306038 
	C184.287155,41.319145 186.012558,40.713848 187.616211,40.400669 
	C185.463287,42.295773 189.434174,45.988834 185.096680,46.888542 
z"/>
<path fill="#F8F8FA" opacity="1.000000" stroke="none" 
	d="
M201.983521,81.063423 
	C202.416916,79.487831 202.850311,77.912231 203.515259,75.494812 
	C205.217606,77.745384 206.315369,79.196655 206.803253,80.809715 
	C204.849823,81.343636 203.506256,81.715775 202.103683,81.834274 
	C202.024307,81.408234 202.003922,81.235825 201.983521,81.063423 
z"/>
<path fill="#2E4BDC" opacity="1.000000" stroke="none" 
	d="
M202.162674,82.087921 
	C203.506256,81.715775 204.849823,81.343636 206.555649,81.002304 
	C206.917892,81.033112 206.985809,81.466286 206.973969,81.685188 
	C205.170853,83.346977 203.379562,84.789864 201.016296,86.325897 
	C200.263123,86.428596 200.081940,86.438148 199.871460,86.342957 
	C199.842178,86.238213 199.637497,86.164551 199.703857,85.822479 
	C200.567688,84.349579 201.365173,83.218750 202.162674,82.087921 
z"/>
<path fill="#1E42F7" opacity="1.000000" stroke="none" 
	d="
M126.938362,92.705681 
	C125.994705,92.349220 125.078934,91.581154 124.196159,90.482056 
	C124.704468,89.274025 125.179779,88.397026 125.835342,87.263252 
	C126.332474,88.769005 126.649361,90.531540 126.938362,92.705681 
z"/>
<path fill="#E3E4E3" opacity="1.000000" stroke="none" 
	d="
M255.386902,195.983749 
	C254.951370,195.977386 254.500809,195.991409 254.270599,195.664886 
	C254.020370,194.896393 254.000336,194.454437 253.980301,194.012482 
	C255.810547,193.450485 257.640778,192.888474 259.684692,191.984818 
	C260.542572,194.970123 259.604706,196.813629 255.386902,195.983749 
z"/>
<path fill="#DCDEDE" opacity="1.000000" stroke="none" 
	d="
M150.943024,56.329277 
	C151.517685,55.949848 152.012253,55.904472 152.970642,55.806404 
	C153.434464,55.753712 153.625900,55.694702 153.625900,55.694702 
	C153.765945,55.815163 153.905991,55.935623 154.156937,56.496948 
	C154.229050,57.306618 154.190292,57.675423 153.871155,58.108925 
	C153.642456,58.700836 153.694153,59.228050 153.372589,59.765823 
	C151.712418,60.216686 150.425491,60.656994 149.138550,61.097298 
	C149.138550,61.097298 148.947510,60.946144 148.851105,60.869282 
	C149.457443,59.416058 150.160187,58.039700 150.943024,56.329277 
z"/>
<path fill="#EBECEC" opacity="1.000000" stroke="none" 
	d="
M256.257446,186.845245 
	C254.467575,186.925400 252.879730,186.840744 251.122025,186.378983 
	C251.898376,185.349655 252.844589,184.697418 254.413101,184.059540 
	C255.389328,184.079910 255.743271,184.085907 256.097198,184.091919 
	C256.217957,184.954758 256.338745,185.817596 256.257446,186.845245 
z"/>
<path fill="#DCDEDE" opacity="1.000000" stroke="none" 
	d="
M202.103683,81.834274 
	C201.365173,83.218750 200.567688,84.349579 199.424988,85.817307 
	C198.710052,86.120888 198.340347,86.087570 197.970642,86.054260 
	C198.017502,84.941391 198.064362,83.828529 198.022614,82.410698 
	C199.049896,81.771149 200.165756,81.436562 201.632568,81.082703 
	C202.003922,81.235825 202.024307,81.408234 202.103683,81.834274 
z"/>
<path fill="#4D5EA4" opacity="1.000000" stroke="none" 
	d="
M242.652649,115.789703 
	C243.353317,115.757957 243.754257,115.854866 244.455292,116.029457 
	C244.712021,117.587914 244.668655,119.068703 244.329315,120.773064 
	C243.105743,119.726196 242.178146,118.455750 241.059631,116.828171 
	C240.868729,116.471046 241.053329,116.026802 241.053329,116.026794 
	C241.486511,115.990654 241.919708,115.954514 242.652649,115.789703 
z"/>
<path fill="#E3E4E3" opacity="1.000000" stroke="none" 
	d="
M113.953262,83.002853 
	C113.290092,83.657967 112.640640,83.975113 111.991196,84.292267 
	C111.988586,83.437660 111.985977,82.583054 111.983360,81.728447 
	C112.644562,82.040596 113.305771,82.352745 113.953262,83.002853 
z"/>
<path fill="#E7E8E9" opacity="1.000000" stroke="none" 
	d="
M244.050262,67.642349 
	C243.545929,67.980560 243.080948,67.994583 242.265747,67.998123 
	C242.703934,66.685730 243.492325,65.383812 244.779572,64.278282 
	C245.591660,64.653687 245.904907,64.832703 246.218140,65.011719 
	C245.508621,65.780533 244.799118,66.549347 244.050262,67.642349 
z"/>
<path fill="#E3E4E3" opacity="1.000000" stroke="none" 
	d="
M115.179626,80.296616 
	C116.195290,80.482307 117.157532,80.980827 118.119781,81.479355 
	C117.757317,81.915443 117.394852,82.351532 117.032387,82.787621 
	C116.396996,82.061562 115.761612,81.335503 115.179626,80.296616 
z"/>
<path fill="#F4F4F5" opacity="1.000000" stroke="none" 
	d="
M254.970886,64.429062 
	C254.954758,64.074585 255.375290,63.857334 255.610962,63.852211 
	C256.077057,64.150978 256.307465,64.454872 256.783142,64.911476 
	C256.289307,66.350418 255.550232,67.636650 254.474396,68.992645 
	C254.111420,68.875137 254.085205,68.687881 254.057861,68.216110 
	C254.366837,66.882240 254.676926,65.832886 254.970886,64.429062 
z"/>
<path fill="#EBECEC" opacity="1.000000" stroke="none" 
	d="
M239.570618,71.971176 
	C239.800430,72.578926 239.647217,73.164040 239.290710,73.976646 
	C237.851654,73.949638 236.615875,73.695137 235.380096,73.440636 
	C235.371338,73.099617 235.362564,72.758606 235.353806,72.417595 
	C236.631729,72.261246 237.909668,72.104897 239.570618,71.971176 
z"/>
<path fill="#EBECEC" opacity="1.000000" stroke="none" 
	d="
M240.657318,115.996193 
	C241.053329,116.026802 240.868729,116.471046 240.783524,116.696671 
	C239.066116,117.271576 237.433929,117.620850 235.424469,118.043777 
	C235.055664,117.837921 235.064117,117.558411 235.143234,116.863243 
	C236.172516,116.304817 237.131165,116.162041 238.386963,115.914902 
	C239.209869,115.862221 239.735580,115.913902 240.657318,115.996193 
z"/>
<path fill="#EBECEC" opacity="1.000000" stroke="none" 
	d="
M242.809845,82.242676 
	C243.164520,81.983330 243.348541,81.987663 243.809189,82.008377 
	C243.296158,83.000092 242.506516,83.975441 241.378998,84.995636 
	C241.041122,85.040497 241.001236,85.001022 240.981033,84.980484 
	C241.520279,84.142082 242.079742,83.324219 242.809845,82.242676 
z"/>
<path fill="#E7E8E9" opacity="1.000000" stroke="none" 
	d="
M242.991364,72.503487 
	C242.393188,72.780464 241.788391,72.717865 241.058258,72.361832 
	C240.954758,71.613655 240.976562,71.158913 241.009933,70.362892 
	C241.675919,70.735718 242.330322,71.449814 242.991364,72.503487 
z"/>
<path fill="#E3E4E3" opacity="1.000000" stroke="none" 
	d="
M256.298370,183.886780 
	C255.743271,184.085907 255.389328,184.079910 254.778564,184.075089 
	C254.590820,183.547516 254.659912,183.018753 254.855072,182.242554 
	C255.487274,182.557312 255.993408,183.119492 256.298370,183.886780 
z"/>
<path fill="#DCDEDE" opacity="1.000000" stroke="none" 
	d="
M164.303070,61.236603 
	C163.865372,61.332832 163.712585,61.242409 163.275970,60.830093 
	C162.992157,60.508205 162.882782,60.045914 162.882782,60.045914 
	C162.900711,59.557411 162.918640,59.068905 162.971375,58.213020 
	C163.533447,58.913746 164.060730,59.981850 164.303070,61.236603 
z"/>
<path fill="#E3E4E3" opacity="1.000000" stroke="none" 
	d="
M114.717712,77.002953 
	C114.164360,77.221947 113.649086,77.138435 113.133812,77.054932 
	C113.212921,76.601212 113.292038,76.147484 113.371155,75.693764 
	C113.832695,76.029327 114.294243,76.364891 114.717712,77.002953 
z"/>
<path fill="#F4F4F5" opacity="1.000000" stroke="none" 
	d="
M246.409454,64.812439 
	C245.904907,64.832703 245.591660,64.653687 245.139069,64.241806 
	C245.559769,63.607468 246.119812,63.206001 246.679871,62.804535 
	C246.653519,63.407413 246.627136,64.010292 246.409454,64.812439 
z"/>
<path fill="#E7E8E9" opacity="1.000000" stroke="none" 
	d="
M246.026276,68.674873 
	C245.495132,68.827072 244.767258,68.728424 244.037720,68.311142 
	C244.633865,68.136345 245.231720,68.280190 246.026276,68.674873 
z"/>
<path fill="#E3E4E3" opacity="1.000000" stroke="none" 
	d="
M261.964966,193.342010 
	C262.274506,193.729858 262.315857,194.110840 262.357208,194.491806 
	C262.085388,194.489471 261.813599,194.487152 261.541809,194.484818 
	C261.593475,194.101593 261.645142,193.718369 261.964966,193.342010 
z"/>
<path fill="#E3E4E3" opacity="1.000000" stroke="none" 
	d="
M156.124237,51.455246 
	C155.742950,51.787605 155.231506,51.867771 154.331177,51.941143 
	C154.626221,51.690578 155.310165,51.446815 156.124237,51.455246 
z"/>
<path fill="#E3E4E3" opacity="1.000000" stroke="none" 
	d="
M152.419220,49.594685 
	C152.359772,50.062458 152.123611,50.348465 151.887436,50.634468 
	C151.709167,50.443798 151.530884,50.253128 151.352615,50.062458 
	C151.649246,49.845947 151.945877,49.629433 152.419220,49.594685 
z"/>
<path fill="#E3E4E3" opacity="1.000000" stroke="none" 
	d="
M265.996826,190.995590 
	C265.567932,191.463928 265.142548,191.936951 264.717163,192.409973 
	C264.562653,192.226913 264.408112,192.043854 264.253571,191.860794 
	C264.658234,191.593338 265.062927,191.325897 265.738617,191.033752 
	C266.009613,191.009064 266.000336,191.000290 265.996826,190.995590 
z"/>
<path fill="#EBECEC" opacity="1.000000" stroke="none" 
	d="
M239.380249,114.837173 
	C239.097000,114.284416 239.052948,113.533455 239.014938,112.408340 
	C239.220474,112.902451 239.419968,113.770714 239.380249,114.837173 
z"/>
<path fill="#E7E8E9" opacity="1.000000" stroke="none" 
	d="
M251.333359,80.030136 
	C251.120972,79.612762 251.240189,79.186638 251.359406,78.760521 
	C251.831909,79.002975 252.304398,79.245438 252.884033,79.740814 
	C252.549103,80.002945 252.107025,80.012161 251.333359,80.030136 
z"/>
<path fill="#E3E4E3" opacity="1.000000" stroke="none" 
	d="
M148.002930,50.003014 
	C148.047836,49.363907 148.090012,48.721943 148.132172,48.079975 
	C148.276901,48.081779 148.421631,48.083584 148.566345,48.085388 
	C148.527679,48.608700 148.489014,49.132008 148.222412,49.825989 
	C147.994476,49.996662 148.000183,50.000160 148.002930,50.003014 
z"/>
<path fill="#DCDEDE" opacity="1.000000" stroke="none" 
	d="
M164.154968,55.260345 
	C164.552643,55.183613 165.118713,55.354633 165.847015,55.783443 
	C165.447281,55.863522 164.885330,55.685814 164.154968,55.260345 
z"/>
<path fill="#E3E4E3" opacity="1.000000" stroke="none" 
	d="
M111.771744,78.985435 
	C111.601120,79.099251 111.430519,79.044701 111.259911,78.990143 
	C111.430527,78.932449 111.601143,78.874763 111.771744,78.985435 
z"/>
<path fill="#F8F8FA" opacity="1.000000" stroke="none" 
	d="
M209.989594,79.233856 
	C210.104218,79.406723 210.048218,79.581169 209.992218,79.755623 
	C209.934479,79.582230 209.876724,79.408829 209.989594,79.233856 
z"/>
<path fill="#DCDEDE" opacity="1.000000" stroke="none" 
	d="
M163.221375,55.032066 
	C163.260788,54.884315 163.556625,54.752296 163.921692,54.820206 
	C163.819885,55.029358 163.648865,55.038578 163.221375,55.032066 
z"/>
<path fill="#EBECEC" opacity="1.000000" stroke="none" 
	d="
M195.801788,44.051201 
	C195.900970,44.325077 195.706512,44.506012 195.214935,44.586983 
	C195.125168,44.318684 195.321960,44.142429 195.801788,44.051201 
z"/>
<path fill="#F8F8FA" opacity="1.000000" stroke="none" 
	d="
M174.637985,225.755493 
	C174.369125,225.588425 174.408569,225.404099 174.791748,225.235764 
	C174.957230,225.401917 174.894165,225.564072 174.637985,225.755493 
z"/>
<path fill="#F8F8FA" opacity="1.000000" stroke="none" 
	d="
M173.667786,227.751648 
	C173.403549,227.617371 173.418198,227.454391 173.751465,227.308609 
	C173.890305,227.309372 173.766922,227.706497 173.667786,227.751648 
z"/>
<path fill="#E3E4E3" opacity="1.000000" stroke="none" 
	d="
M114.005478,86.995842 
	C113.888390,86.851219 113.765831,86.710861 113.643265,86.570511 
	C113.728111,86.622330 113.812958,86.674156 113.944542,86.868584 
	C113.991280,87.011192 114.000000,87.000107 114.005478,86.995842 
z"/>
<path fill="#EBECEC" opacity="1.000000" stroke="none" 
	d="
M270.958344,148.942322 
	C271.074097,148.896240 271.250397,148.914825 271.288452,149.029587 
	C271.150238,149.125778 271.018860,149.007004 270.958344,148.942322 
z"/>
<path fill="#F4F4F5" opacity="1.000000" stroke="none" 
	d="
M249.725632,68.968491 
	C249.697830,69.077301 249.466385,69.199608 249.174408,69.156052 
	C249.113892,68.990189 249.521988,68.982002 249.725632,68.968491 
z"/>
<path fill="#2043F7" opacity="1.000000" stroke="none" 
	d="
M226.581680,156.971893 
	C226.352844,157.980499 225.755234,158.993973 224.757599,160.511200 
	C221.398132,163.351089 218.438705,165.687225 215.479279,168.023361 
	C207.701187,171.508469 199.923080,174.993576 191.952148,178.785706 
	C190.851151,176.684219 189.942978,174.275711 189.420471,171.392883 
	C192.635803,167.132004 191.643692,157.888580 187.995300,153.993469 
	C188.001648,153.998779 188.010406,154.012787 187.932709,153.762589 
	C187.565002,153.336838 187.274979,153.161285 186.992859,152.991852 
	C187.000763,152.997955 187.011932,153.014496 186.993713,152.633545 
	C185.441360,147.043182 184.751404,146.790054 180.420013,150.001740 
	C177.251740,150.915161 174.505646,151.829285 171.759552,152.743408 
	C166.864777,152.190063 162.110916,151.553741 159.591537,157.570816 
	C158.959030,159.081421 156.502045,159.828094 154.459106,160.532196 
	C152.743500,155.490509 151.452332,150.842484 150.098572,145.811523 
	C148.639832,141.931824 147.243683,138.435043 145.839264,134.501404 
	C146.236816,131.044907 146.642654,128.025299 147.396637,124.942856 
	C148.147919,123.880028 148.551041,122.880051 148.977173,121.654831 
	C149.000168,121.429573 149.098816,120.987587 149.304932,120.858376 
	C149.756714,120.497505 149.906250,120.214966 149.984177,119.658386 
	C150.008698,119.435234 150.119415,119.000099 150.450302,118.943153 
	C151.888992,117.521339 152.860641,116.011230 154.131317,114.820084 
	C157.349091,111.803711 160.701126,108.930527 163.999390,106.000000 
	C166.727127,108.906647 169.421387,111.845909 172.202591,114.700447 
	C173.059479,115.579941 174.153656,116.228218 175.651825,117.322250 
	C177.457764,120.103264 178.751068,122.544395 180.105621,125.335075 
	C182.201309,130.344589 186.108383,132.752197 190.830902,132.630020 
	C191.970062,132.600571 192.999054,128.312225 194.078705,125.982399 
	C197.235031,125.906799 197.413040,127.479492 196.099625,129.751709 
	C194.791138,132.015396 195.035141,133.278732 197.564957,134.857819 
	C202.795639,138.122742 207.702560,141.930832 212.586578,145.716858 
	C215.239044,147.773010 217.497726,150.329636 220.071625,152.497101 
	C222.005081,154.125259 224.157791,155.493073 226.581680,156.971893 
z"/>
<path fill="#F9F9FA" opacity="1.000000" stroke="none" 
	d="
M150.119415,119.000099 
	C150.119415,119.000099 150.008698,119.435234 149.719757,119.754074 
	C149.320145,120.377808 149.209488,120.682693 149.098816,120.987587 
	C149.098816,120.987587 149.000168,121.429573 148.673767,121.783112 
	C147.914429,123.092995 147.481461,124.049347 147.048492,125.005699 
	C146.642654,128.025299 146.236816,131.044907 145.482483,134.519836 
	C141.671692,136.841324 138.088226,138.523422 134.816010,140.678207 
	C133.739594,141.387024 133.468948,143.319458 132.829849,144.692368 
	C134.264603,145.130295 136.210678,146.390549 137.049026,145.869278 
	C141.616455,143.029358 145.836533,144.906479 150.161179,146.194473 
	C151.452332,150.842484 152.743500,155.490509 154.113586,160.549286 
	C149.662781,165.085663 145.673172,170.176102 140.465836,173.091385 
	C134.034164,176.692108 126.590378,178.485001 119.216553,180.776123 
	C118.226326,178.332047 117.603485,176.170898 117.320923,173.517487 
	C122.249832,170.848709 122.610474,166.653091 122.244942,162.477402 
	C121.974602,159.389160 121.291214,156.043549 117.074829,155.702820 
	C118.843483,150.135864 120.612144,144.568909 122.454971,138.642181 
	C122.733696,138.004318 122.938255,137.726227 123.447273,137.019745 
	C123.959496,135.781021 124.167252,134.970688 124.375015,134.160339 
	C131.527725,125.658981 138.680420,117.157623 145.972351,108.348969 
	C147.174896,107.432060 148.238205,106.822441 149.830444,106.119873 
	C150.359375,106.026917 150.820129,106.134689 150.869446,106.436172 
	C150.918762,108.042023 150.918762,109.346397 150.918762,110.880478 
	C151.490387,110.936592 152.256897,111.011841 153.010101,111.457245 
	C152.037674,114.218300 151.078537,116.609200 150.119415,119.000099 
z"/>
<path fill="#2447F8" opacity="1.000000" stroke="none" 
	d="
M172.067169,152.911530 
	C174.505646,151.829285 177.251740,150.915161 180.648743,150.266724 
	C183.203735,151.359772 185.107834,152.187134 187.011932,153.014496 
	C187.011932,153.014496 187.000763,152.997955 187.043732,153.261017 
	C187.394592,153.686996 187.702499,153.849884 188.010406,154.012787 
	C188.010406,154.012787 188.001648,153.998779 187.972626,154.381866 
	C187.943634,156.867355 187.943680,158.969757 187.943726,161.072174 
	C184.273239,155.448776 178.390762,154.134216 172.067169,152.911530 
z"/>
<path fill="#203481" opacity="1.000000" stroke="none" 
	d="
M143.915573,230.924591 
	C149.190353,224.193359 148.246262,216.266464 147.964661,208.574539 
	C147.777878,203.472931 149.287827,199.175354 152.659744,195.126404 
	C153.009308,195.007111 153.091721,195.083282 153.091721,195.083282 
	C148.818375,203.102875 150.663666,211.862137 149.777435,220.308365 
	C149.388947,224.010773 146.529861,227.453949 144.397690,231.009872 
	C144.002747,231.004898 143.915573,230.924591 143.915573,230.924591 
z"/>
<path fill="#203481" opacity="1.000000" stroke="none" 
	d="
M125.126205,192.102280 
	C123.631111,200.157898 122.136024,208.213516 120.640930,216.269150 
	C120.333992,208.022110 118.369858,199.530411 124.527611,191.993362 
	C124.953178,191.956406 125.126213,192.102280 125.126205,192.102280 
z"/>
<path fill="#243BA3" opacity="1.000000" stroke="none" 
	d="
M187.963440,161.480133 
	C187.943680,158.969757 187.943634,156.867355 187.966278,154.376556 
	C191.643692,157.888580 192.635803,167.132004 189.451233,170.991608 
	C188.725266,168.005798 188.354202,164.946960 187.963440,161.480133 
z"/>
<path fill="#203481" opacity="1.000000" stroke="none" 
	d="
M153.876862,193.886948 
	C154.059570,193.337540 154.242279,192.788132 154.728363,192.131714 
	C155.031738,192.024734 155.153198,192.137589 155.153198,192.137589 
	C154.968552,192.688263 154.783905,193.238953 154.294189,193.890808 
	C153.989105,193.992004 153.876846,193.886948 153.876862,193.886948 
z"/>
<path fill="#203481" opacity="1.000000" stroke="none" 
	d="
M160.121796,188.106400 
	C159.645355,188.433853 159.168915,188.761307 158.351715,189.051697 
	C158.010956,189.014633 157.927307,188.937683 157.927307,188.937683 
	C158.371567,188.592697 158.815826,188.247711 159.619293,187.936310 
	C159.978485,187.969894 160.121796,188.106400 160.121796,188.106400 
z"/>
<path fill="#203481" opacity="1.000000" stroke="none" 
	d="
M126.223915,190.210312 
	C126.010597,190.728409 125.797279,191.246521 125.355087,191.933441 
	C125.126213,192.102280 124.953178,191.956406 124.863541,191.880936 
	C124.984917,191.273575 125.195946,190.741699 125.727661,190.124985 
	C126.048347,190.040146 126.223915,190.210312 126.223915,190.210312 
z"/>
<path fill="#203481" opacity="1.000000" stroke="none" 
	d="
M143.079620,232.071945 
	C142.927414,232.266800 142.775192,232.461655 142.622971,232.656494 
	C142.603333,232.460922 142.583710,232.265366 142.783981,232.035858 
	C143.003876,232.001938 143.079620,232.071945 143.079620,232.071945 
z"/>
<path fill="#203481" opacity="1.000000" stroke="none" 
	d="
M154.974411,191.964844 
	C155.037933,191.591537 155.235123,191.337326 155.758575,191.073822 
	C156.008530,191.005356 156.062744,191.053940 156.062744,191.053940 
	C156.012543,191.397797 155.851974,191.678467 155.367096,192.016769 
	C155.153198,192.137589 155.031738,192.024734 154.974411,191.964844 
z"/>
<path fill="#203481" opacity="1.000000" stroke="none" 
	d="
M154.041870,194.047913 
	C154.023483,194.446915 153.845200,194.720078 153.325775,195.003281 
	C153.091721,195.083282 153.009308,195.007111 152.968887,194.964035 
	C152.984833,194.576492 153.149033,194.294937 153.648941,193.981628 
	C153.876846,193.886948 153.989105,193.992004 154.041870,194.047913 
z"/>
<path fill="#203481" opacity="1.000000" stroke="none" 
	d="
M142.968750,231.964172 
	C143.105179,231.649963 143.276733,231.373489 143.681931,231.010803 
	C143.915573,230.924591 144.002747,231.004898 144.046204,231.051239 
	C143.911850,231.371384 143.734039,231.645218 143.317932,231.995483 
	C143.079620,232.071945 143.003876,232.001938 142.968750,231.964172 
z"/>
<path fill="#203481" opacity="1.000000" stroke="none" 
	d="
M157.048172,190.041946 
	C156.875992,190.319946 156.703812,190.597931 156.297180,190.964935 
	C156.062744,191.053940 156.008530,191.005356 155.983246,190.977875 
	C156.039124,190.613098 156.221909,190.345139 156.755646,190.074860 
	C157.004913,190.003174 157.048172,190.041946 157.048172,190.041946 
z"/>
<path fill="#203481" opacity="1.000000" stroke="none" 
	d="
M129.378662,187.576126 
	C129.290756,187.469604 129.603638,187.416107 129.603638,187.416107 
	C129.603638,187.416107 129.466583,187.682648 129.378662,187.576126 
z"/>
<path fill="#203481" opacity="1.000000" stroke="none" 
	d="
M159.910553,187.897949 
	C160.027954,187.653076 160.213303,187.480164 160.398651,187.307251 
	C160.420700,187.507492 160.442749,187.707733 160.293304,188.007187 
	C160.121796,188.106400 159.978485,187.969894 159.910553,187.897949 
z"/>
<path fill="#203481" opacity="1.000000" stroke="none" 
	d="
M126.883301,188.897507 
	C127.066200,188.726059 127.249100,188.554596 127.431992,188.383133 
	C127.462967,188.588394 127.493935,188.793640 127.279541,189.020187 
	C127.034172,189.041473 126.883293,188.897507 126.883301,188.897507 
z"/>
<path fill="#203481" opacity="1.000000" stroke="none" 
	d="
M127.106567,189.116516 
	C127.055672,189.490875 126.869011,189.743317 126.421448,190.079605 
	C126.223915,190.210312 126.048347,190.040146 125.962418,189.951141 
	C126.015724,189.570465 126.213890,189.326691 126.677139,189.014175 
	C126.883293,188.897507 127.034172,189.041473 127.106567,189.116516 
z"/>
<path fill="#203481" opacity="1.000000" stroke="none" 
	d="
M156.985413,189.981628 
	C157.024246,189.616409 157.195770,189.344025 157.703888,189.040314 
	C157.927307,188.937683 158.010956,189.014633 158.051575,189.058746 
	C158.022003,189.452072 157.833023,189.716263 157.286697,189.968689 
	C157.048172,190.041946 157.004913,190.003174 156.985413,189.981628 
z"/>
<path fill="#1F41F5" opacity="1.000000" stroke="none" 
	d="
M150.450302,118.943153 
	C151.078537,116.609200 152.037674,114.218300 153.273315,111.326782 
	C154.373230,109.297783 155.196609,107.769386 156.250854,106.132507 
	C156.484528,105.037292 156.487305,104.050568 156.283691,102.793030 
	C155.318802,102.660591 154.560318,102.798973 153.491241,102.966347 
	C152.468048,103.375900 151.755447,103.756477 151.042862,104.137054 
	C153.201462,99.934830 156.079300,96.624603 161.812347,96.032463 
	C162.964279,96.343033 163.431183,96.627083 163.729675,96.994728 
	C163.743576,97.092941 163.925873,97.107567 164.443069,97.105309 
	C165.441208,96.991058 166.104462,96.893684 166.862259,96.877136 
	C166.956802,96.957947 167.147186,97.118027 167.083649,97.477768 
	C166.678406,99.231346 166.336700,100.625183 165.994995,102.019012 
	C165.994995,102.019012 165.996140,101.996597 165.719757,102.090126 
	C165.283463,102.548386 165.123566,102.913109 164.963654,103.277840 
	C164.717560,104.004982 164.471481,104.732132 164.112396,105.729630 
	C160.701126,108.930527 157.349091,111.803711 154.131317,114.820084 
	C152.860641,116.011230 151.888992,117.521339 150.450302,118.943153 
z"/>
<path fill="#E7E8E9" opacity="1.000000" stroke="none" 
	d="
M194.032898,125.653336 
	C192.999054,128.312225 191.970062,132.600571 190.830902,132.630020 
	C186.108383,132.752197 182.201309,130.344589 180.084167,125.347565 
	C180.001419,125.010506 179.963577,125.042679 180.388565,125.024078 
	C184.496689,126.074974 186.880295,124.341774 188.978439,121.520126 
	C189.354141,121.014877 190.918961,121.393860 191.934753,121.364586 
	C192.618866,122.684486 193.302979,124.004387 194.032898,125.653336 
z"/>
<path fill="#E7E8E9" opacity="1.000000" stroke="none" 
	d="
M180.022888,124.998016 
	C178.751068,122.544395 177.457764,120.103264 176.011169,117.332489 
	C176.290100,115.969345 176.722351,114.935852 177.420959,113.421936 
	C178.183685,111.992157 178.680038,111.042801 179.176392,110.093445 
	C182.298050,108.242104 184.906662,107.986259 186.457413,112.106636 
	C187.013229,113.583496 188.021500,114.890068 188.894409,116.940750 
	C188.863037,117.906433 188.694839,118.473907 188.667343,118.467163 
	C182.489197,116.953247 180.293472,118.603294 179.963577,125.042679 
	C179.963577,125.042679 180.001419,125.010506 180.022888,124.998016 
z"/>
<path fill="#243BA3" opacity="1.000000" stroke="none" 
	d="
M163.898102,96.911140 
	C163.431183,96.627083 162.964279,96.343033 162.206268,96.039200 
	C161.924713,95.835663 161.934265,95.651917 162.213776,95.193451 
	C162.764465,94.776756 163.045212,94.634773 163.325958,94.492783 
	C162.876068,94.352135 162.426193,94.211487 161.976303,94.070847 
	C163.209503,92.615936 164.442688,91.161026 165.862442,89.440140 
	C167.480743,89.174164 168.912506,89.174164 170.513779,89.174164 
	C171.993057,94.365746 169.091629,97.985710 166.314743,101.878998 
	C166.336700,100.625183 166.678406,99.231346 167.281097,97.317734 
	C167.516342,96.384796 167.490631,95.971649 167.464935,95.558502 
	C167.232529,95.971115 167.000122,96.383720 166.767731,96.796326 
	C166.104462,96.893684 165.441208,96.991058 164.392273,97.050827 
	C164.006577,97.013237 163.898102,96.911140 163.898102,96.911140 
z"/>
<path fill="#2E4BDC" opacity="1.000000" stroke="none" 
	d="
M180.388565,125.024078 
	C180.293472,118.603294 182.489197,116.953247 188.667343,118.467163 
	C188.694839,118.473907 188.863037,117.906433 189.012772,117.276695 
	C190.026337,118.167534 190.992661,119.388817 191.946869,120.987335 
	C190.918961,121.393860 189.354141,121.014877 188.978439,121.520126 
	C186.880295,124.341774 184.496689,126.074974 180.388565,125.024078 
z"/>
<path fill="#FFFFFF" opacity="1.000000" stroke="none" 
	d="
M162.557556,60.028221 
	C162.882782,60.045914 162.992157,60.508205 163.024170,60.743355 
	C162.095551,62.507271 161.134903,64.036041 160.012573,65.850128 
	C159.475616,66.131836 159.100327,66.128235 158.277527,65.875992 
	C157.506241,65.376747 157.182465,65.126144 156.861389,64.553741 
	C155.824677,62.739716 154.785263,61.247490 153.745834,59.755264 
	C153.694153,59.228050 153.642456,58.700836 154.227905,58.093796 
	C155.586533,58.002304 156.308029,57.990639 157.029541,57.978973 
	C157.807098,58.305264 158.584641,58.631554 159.680008,58.976334 
	C160.742661,59.333393 161.487503,59.671963 162.557556,60.028221 
z"/>
<path fill="#DCDEDE" opacity="1.000000" stroke="none" 
	d="
M199.133850,90.015724 
	C197.417480,91.181053 195.701096,92.346382 193.984726,93.511703 
	C193.503326,93.041145 193.021912,92.570587 192.540512,92.100029 
	C193.800446,90.419861 195.060379,88.739685 196.562347,87.315582 
	C196.240906,88.326782 195.677444,89.081902 194.790985,90.269913 
	C196.651688,90.161011 197.892776,90.088364 199.133850,90.015724 
z"/>
<path fill="#FFFFFF" opacity="1.000000" stroke="none" 
	d="
M199.345581,89.984688 
	C197.892776,90.088364 196.651688,90.161011 194.790985,90.269913 
	C195.677444,89.081902 196.240906,88.326782 196.927841,87.277618 
	C197.147720,86.687180 197.320404,86.445221 197.769989,86.155991 
	C198.340347,86.087570 198.710052,86.120888 199.358627,86.159378 
	C199.637497,86.164551 199.842178,86.238213 199.858215,86.541290 
	C199.874237,86.844368 199.977432,87.229713 199.977448,87.229713 
	C200.009735,87.716446 200.042023,88.203186 200.125809,89.052505 
	C200.078506,89.718857 199.871857,89.898384 199.345581,89.984688 
z"/>
<path fill="#2043F7" opacity="1.000000" stroke="none" 
	d="
M230.962524,138.400833 
	C231.416245,138.003586 231.814713,138.003525 232.573380,138.302399 
	C233.199615,139.079147 233.465652,139.556961 233.712891,140.134567 
	C233.694107,140.234344 233.814117,140.398117 233.735596,140.497711 
	C233.657074,140.597305 233.579742,140.838898 233.579742,140.838898 
	C232.653061,142.504013 231.726364,144.169113 230.470734,145.940521 
	C230.396957,143.630554 230.652115,141.214279 230.962524,138.400833 
z"/>
<path fill="#F4F4F5" opacity="1.000000" stroke="none" 
	d="
M156.858688,64.875542 
	C157.182465,65.126144 157.506241,65.376747 157.995651,65.888840 
	C157.970856,66.409111 157.780426,66.667900 157.348938,66.993614 
	C156.812592,66.849144 156.517334,66.637764 156.160706,65.944016 
	C156.237839,65.117813 156.490952,64.922440 156.858688,64.875542 
z"/>
<path fill="#2043F7" opacity="1.000000" stroke="none" 
	d="
M178.802353,110.114227 
	C178.680038,111.042801 178.183685,111.992157 177.389389,113.077415 
	C177.537064,112.187210 177.982681,111.161110 178.802353,110.114227 
z"/>
<path fill="#2043F7" opacity="1.000000" stroke="none" 
	d="
M227.623657,154.241959 
	C227.801544,154.663193 227.749237,155.296097 227.412231,156.100159 
	C227.216187,155.665421 227.304840,155.059540 227.623657,154.241959 
z"/>
<path fill="#2043F7" opacity="1.000000" stroke="none" 
	d="
M230.059753,146.291245 
	C230.270477,146.309158 230.491867,146.739639 230.345200,146.933289 
	C229.989471,146.946884 229.780426,146.766815 229.571381,146.586761 
	C229.663925,146.482285 229.756470,146.377808 230.059753,146.291245 
z"/>
<path fill="#2043F7" opacity="1.000000" stroke="none" 
	d="
M229.572968,149.317230 
	C229.736084,149.534882 229.693954,149.921600 229.366821,150.409821 
	C229.177139,150.169647 229.272430,149.827988 229.572968,149.317230 
z"/>
<path fill="#243BA3" opacity="1.000000" stroke="none" 
	d="
M165.204742,103.119759 
	C165.123566,102.913109 165.283463,102.548386 165.730347,102.086449 
	C165.826813,102.313393 165.636322,102.637535 165.204742,103.119759 
z"/>
<path fill="#2B353E" opacity="1.000000" stroke="none" 
	d="
M226.509705,192.151917 
	C224.667740,195.105331 222.450150,198.153030 220.077332,201.484589 
	C215.775787,205.119400 211.629486,208.470352 207.132767,211.813583 
	C207.547348,201.486389 215.676315,193.270035 226.509705,192.151917 
z"/>
<path fill="#323B44" opacity="1.000000" stroke="none" 
	d="
M215.679413,168.366974 
	C218.438705,165.687225 221.398132,163.351089 224.655930,160.806488 
	C225.336426,166.625275 225.718536,172.652542 226.100647,178.679794 
	C225.470291,178.901489 224.839920,179.123184 224.209549,179.344879 
	C222.869537,176.757202 221.529510,174.169540 220.203049,171.608047 
	C218.888657,170.727188 217.384109,169.718903 215.679413,168.366974 
z"/>
<path fill="#4D5EA4" opacity="1.000000" stroke="none" 
	d="
M240.824615,134.172531 
	C241.291107,134.155014 241.757599,134.137512 242.571991,134.148071 
	C242.921997,134.580643 242.924118,134.985153 242.952133,136.118393 
	C243.047028,138.537292 243.116028,140.227463 243.185028,141.917618 
	C243.154022,142.701538 243.123016,143.485443 243.072861,144.977722 
	C243.066818,146.114716 243.079926,146.543350 243.093033,146.971970 
	C243.056274,147.421524 243.019531,147.871063 242.997742,148.658783 
	C240.859100,158.129974 238.705490,167.263000 236.038818,176.630890 
	C235.351410,176.911163 235.177032,176.956558 235.002655,177.001938 
	C237.237823,167.572174 239.531998,158.155762 241.672668,148.704575 
	C242.326508,145.817734 242.277039,142.974274 238.071732,141.765289 
	C238.303726,140.663620 238.922119,139.928146 239.668091,138.831558 
	C240.138657,137.037811 240.481628,135.605179 240.824615,134.172531 
z"/>
<path fill="#F4F4F5" opacity="1.000000" stroke="none" 
	d="
M239.540527,139.192673 
	C238.922119,139.928146 238.303726,140.663620 237.682816,141.728195 
	C237.356979,142.049103 237.033630,142.044174 236.554565,141.721771 
	C236.235306,140.992630 236.071701,140.584274 235.941971,139.772446 
	C236.380325,137.316696 236.784821,135.264389 237.189301,133.212097 
	C237.676147,133.293182 238.162979,133.374252 238.799072,134.066025 
	C239.145706,136.182037 239.343124,137.687347 239.540527,139.192673 
z"/>
<path fill="#4D5EA4" opacity="1.000000" stroke="none" 
	d="
M235.908096,140.175903 
	C236.071701,140.584274 236.235306,140.992630 236.311432,141.719238 
	C235.581512,141.707520 234.939087,141.377563 233.938202,140.943237 
	C233.579742,140.838898 233.657074,140.597305 234.081024,140.418121 
	C234.972687,140.217911 235.440384,140.196915 235.908096,140.175903 
z"/>
<path fill="#1F42F8" opacity="1.000000" stroke="none" 
	d="
M234.953369,177.254547 
	C235.177032,176.956558 235.351410,176.911163 235.797058,176.871643 
	C235.890152,177.159973 235.711990,177.442413 235.317719,177.853668 
	C235.035767,177.824036 234.969925,177.665588 234.953369,177.254547 
z"/>
<path fill="#2B353E" opacity="1.000000" stroke="none" 
	d="
M116.729286,155.983444 
	C121.291214,156.043549 121.974602,159.389160 122.244942,162.477402 
	C122.610474,166.653091 122.249832,170.848709 117.307098,173.140472 
	C116.763229,167.591843 116.573486,161.927948 116.729286,155.983444 
z"/>
<path fill="#183CF4" opacity="1.000000" stroke="none" 
	d="
M124.047867,134.270325 
	C124.167252,134.970688 123.959496,135.781021 123.489403,136.760620 
	C123.391617,136.080017 123.556168,135.230164 124.047867,134.270325 
z"/>
<path fill="#EBECEC" opacity="1.000000" stroke="none" 
	d="
M150.948822,104.394730 
	C151.755447,103.756477 152.468048,103.375900 153.599731,103.362946 
	C154.006805,104.003952 153.994827,104.277344 154.015350,104.790741 
	C154.043869,105.353691 154.029144,105.676155 153.745117,106.095200 
	C152.597763,106.173073 151.708954,106.153877 150.820129,106.134689 
	C150.820129,106.134689 150.359375,106.026917 150.125641,105.989670 
	C150.212860,105.519096 150.533829,105.085754 150.948822,104.394730 
z"/>
<path fill="#1F41F5" opacity="1.000000" stroke="none" 
	d="
M161.979889,94.282387 
	C162.426193,94.211487 162.876068,94.352135 163.325958,94.492783 
	C163.045212,94.634773 162.764465,94.776756 162.228210,94.917839 
	C161.972702,94.916931 161.983459,94.493927 161.979889,94.282387 
z"/>
<path fill="#FFFFFF" opacity="1.000000" stroke="none" 
	d="
M253.973541,194.006683 
	C254.000336,194.454437 254.020370,194.896393 254.045288,195.670105 
	C250.808319,195.307877 247.566483,194.613907 244.322449,193.919449 
	C244.646896,191.899963 244.874146,190.485458 245.120880,188.697937 
	C245.343994,188.237076 245.547607,188.149216 246.311096,188.072235 
	C247.246353,187.835526 247.621719,187.587936 247.997086,187.340332 
	C248.297943,187.095657 248.598801,186.850983 249.005005,186.333618 
	C249.110367,186.060913 249.545288,186.053894 249.888733,186.513626 
	C250.393845,187.190445 250.555511,187.407547 250.717194,187.624649 
	C250.750641,187.802200 250.737778,187.976318 250.493164,188.541992 
	C250.468155,189.289200 250.628601,189.641434 250.789062,189.993668 
	C250.835297,190.154007 250.881531,190.314346 251.053772,190.962448 
	C251.457901,191.632401 251.736023,191.814575 252.014160,191.996750 
	C252.014160,191.996750 252.000381,192.002029 252.101257,192.217072 
	C252.394745,192.708206 252.650085,192.901337 252.968170,193.011505 
	C252.968170,193.011505 253.009537,193.012878 253.070251,193.265442 
	C253.326141,193.815765 253.600845,193.982666 253.955048,194.018707 
	C253.955048,194.018707 253.966766,194.000900 253.973541,194.006683 
z"/>
<path fill="#EBECEC" opacity="1.000000" stroke="none" 
	d="
M247.765839,187.313782 
	C247.621719,187.587936 247.246353,187.835526 246.643631,188.063629 
	C246.789062,187.791824 247.161819,187.539536 247.765839,187.313782 
z"/>
<path fill="#EBECEC" opacity="1.000000" stroke="none" 
	d="
M250.931122,187.356995 
	C250.555511,187.407547 250.393845,187.190445 250.091492,186.592316 
	C250.128555,186.166290 250.306320,186.121338 250.751389,186.012695 
	C251.133392,186.193008 251.284241,186.428299 251.346024,186.685028 
	C251.373001,186.797195 251.217621,186.953232 250.931122,187.356995 
z"/>
<path fill="#2447F8" opacity="1.000000" stroke="none" 
	d="
M243.424316,141.658585 
	C243.116028,140.227463 243.047028,138.537292 242.985443,136.421402 
	C243.216431,137.796967 243.440018,139.598251 243.424316,141.658585 
z"/>
<path fill="#2447F8" opacity="1.000000" stroke="none" 
	d="
M243.298187,146.831192 
	C243.079926,146.543350 243.066818,146.114716 243.107773,145.368988 
	C243.275665,145.598068 243.389496,146.144241 243.298187,146.831192 
z"/>
<path fill="#AEB1B4" opacity="1.000000" stroke="none" 
	d="
M235.941971,139.772461 
	C235.440384,140.196915 234.972687,140.217911 234.159546,140.318512 
	C233.814117,140.398117 233.694107,140.234344 233.845673,139.763214 
	C234.282730,137.266037 234.568237,135.240005 234.853745,133.213959 
	C235.372513,133.179214 235.891281,133.144455 236.799683,133.160904 
	C236.784821,135.264389 236.380325,137.316696 235.941971,139.772461 
z"/>
<path fill="#F4F4F5" opacity="1.000000" stroke="none" 
	d="
M234.524689,133.330658 
	C234.568237,135.240005 234.282730,137.266037 233.864456,139.663437 
	C233.465652,139.556961 233.199615,139.079147 232.872375,138.302322 
	C233.272659,136.484665 233.734146,134.966019 234.524689,133.330658 
z"/>
<path fill="#AEB1B4" opacity="1.000000" stroke="none" 
	d="
M239.668091,138.831558 
	C239.343124,137.687347 239.145706,136.182037 238.941986,134.277161 
	C239.355499,133.942337 239.775360,134.007034 240.509918,134.122131 
	C240.481628,135.605179 240.138657,137.037811 239.668091,138.831558 
z"/>
<path fill="#2E4BDC" opacity="1.000000" stroke="none" 
	d="
M156.861389,64.553741 
	C156.490952,64.922440 156.237839,65.117813 156.030884,65.701309 
	C151.289078,68.525963 150.186401,65.262527 149.168457,61.454311 
	C150.425491,60.656994 151.712418,60.216686 153.372589,59.765823 
	C154.785263,61.247490 155.824677,62.739716 156.861389,64.553741 
z"/>
<path fill="#FFFFFF" opacity="1.000000" stroke="none" 
	d="
M254.884903,57.052361 
	C254.211639,57.079136 253.538376,57.105915 252.532440,57.138382 
	C252.458145,55.383881 252.716507,53.623692 252.962784,51.945839 
	C254.963394,52.095932 256.661682,52.223347 258.803864,52.384060 
	C257.550171,54.649792 263.914185,56.737961 258.275024,59.101692 
	C257.994751,59.031593 257.988586,59.008583 257.851257,58.737579 
	C257.159729,58.299774 256.605530,58.132969 256.051361,57.966160 
	C256.051361,57.966160 255.990082,57.976040 255.914871,57.703876 
	C255.521408,57.305260 255.203156,57.178810 254.884903,57.052361 
z"/>
<path fill="#FFFFFF" opacity="1.000000" stroke="none" 
	d="
M231.887299,108.894196 
	C232.071335,109.151154 231.999069,109.604942 231.681244,110.012474 
	C231.546234,111.283432 231.729050,112.146858 231.911865,113.010284 
	C232.773483,114.031601 233.635117,115.052925 234.618652,116.378403 
	C233.368469,117.044731 231.996353,117.406914 230.662277,117.759056 
	C229.177200,116.465935 227.495132,115.001312 224.722107,112.586746 
	C227.281586,111.138748 229.492416,109.888000 231.887299,108.894196 
z"/>
<path fill="#EBECEC" opacity="1.000000" stroke="none" 
	d="
M251.916382,191.765076 
	C251.736023,191.814575 251.457901,191.632401 251.092957,191.209671 
	C251.276962,191.157211 251.547775,191.345306 251.916382,191.765076 
z"/>
<path fill="#EBECEC" opacity="1.000000" stroke="none" 
	d="
M252.944397,192.741364 
	C252.650085,192.901337 252.394745,192.708206 252.101929,192.210266 
	C252.308029,192.149338 252.614334,192.310272 252.944397,192.741364 
z"/>
<path fill="#EBECEC" opacity="1.000000" stroke="none" 
	d="
M253.844208,193.810333 
	C253.600845,193.982666 253.326141,193.815765 253.057190,193.281525 
	C253.287018,193.158493 253.537003,193.344131 253.844208,193.810333 
z"/>
<path fill="#EBECEC" opacity="1.000000" stroke="none" 
	d="
M250.856369,189.716949 
	C250.628601,189.641434 250.468155,189.289200 250.447128,188.665207 
	C250.698944,188.742355 250.811310,189.091293 250.856369,189.716949 
z"/>
<path fill="#FFFFFF" opacity="1.000000" stroke="none" 
	d="
M153.606842,55.506409 
	C153.625900,55.694702 153.434464,55.753712 153.336929,55.736538 
	C153.239395,55.719364 153.063751,55.304573 153.025833,55.080521 
	C153.238785,54.944328 153.438736,55.098209 153.606842,55.506409 
z"/>
<path fill="#F4F4F5" opacity="1.000000" stroke="none" 
	d="
M231.947174,112.636391 
	C231.729050,112.146858 231.546234,111.283432 231.585388,110.221275 
	C231.865723,110.769196 231.924103,111.515846 231.947174,112.636391 
z"/>
<path fill="#E3E4E3" opacity="1.000000" stroke="none" 
	d="
M256.119415,58.271881 
	C256.605530,58.132969 257.159729,58.299774 257.841858,58.732754 
	C257.375702,58.858486 256.781586,58.718044 256.119415,58.271881 
z"/>
<path fill="#E3E4E3" opacity="1.000000" stroke="none" 
	d="
M255.028534,57.252769 
	C255.203156,57.178810 255.521408,57.305260 255.935394,57.680588 
	C255.715591,57.823368 255.429276,57.664604 255.028534,57.252769 
z"/>
<path fill="#F4F4F5" opacity="1.000000" stroke="none" 
	d="
M157.017059,57.677193 
	C156.308029,57.990639 155.586533,58.002304 154.508270,58.029099 
	C154.190292,57.675423 154.229050,57.306618 154.365234,56.679680 
	C155.309967,56.739506 156.157288,57.057457 157.017059,57.677193 
z"/>
<path fill="#FFFFFF" opacity="1.000000" stroke="none" 
	d="
M168.474091,59.399216 
	C168.531052,59.355797 168.417130,59.442631 168.474091,59.399216 
z"/>
<path fill="#DCDEDE" opacity="1.000000" stroke="none" 
	d="
M200.166367,87.154648 
	C199.977432,87.229713 199.874237,86.844368 199.887497,86.646034 
	C200.081940,86.438148 200.263123,86.428596 200.704468,86.497894 
	C200.833755,86.831810 200.630646,86.999420 200.166367,87.154648 
z"/>
<path fill="#2B353E" opacity="1.000000" stroke="none" 
	d="
M150.098572,145.811523 
	C145.836533,144.906479 141.616455,143.029358 137.049026,145.869278 
	C136.210678,146.390549 134.264603,145.130295 132.829849,144.692368 
	C133.468948,143.319458 133.739594,141.387024 134.816010,140.678207 
	C138.088226,138.523422 141.671692,136.841324 145.490753,134.956726 
	C147.243683,138.435043 148.639832,141.931824 150.098572,145.811523 
z"/>
<path fill="#243BA3" opacity="1.000000" stroke="none" 
	d="
M186.993713,152.633545 
	C185.107834,152.187134 183.203735,151.359772 181.070923,150.267426 
	C184.751404,146.790054 185.441360,147.043182 186.993713,152.633545 
z"/>
<path fill="#1F41F5" opacity="1.000000" stroke="none" 
	d="
M147.396637,124.942856 
	C147.481461,124.049347 147.914429,123.092995 148.650772,122.008362 
	C148.551041,122.880051 148.147919,123.880028 147.396637,124.942856 
z"/>
<path fill="#1F41F5" opacity="1.000000" stroke="none" 
	d="
M149.304932,120.858376 
	C149.209488,120.682693 149.320145,120.377808 149.695236,119.977234 
	C149.906250,120.214966 149.756714,120.497505 149.304932,120.858376 
z"/>
<path fill="#243BA3" opacity="1.000000" stroke="none" 
	d="
M187.932709,153.762589 
	C187.702499,153.849884 187.394592,153.686996 187.035828,153.254913 
	C187.274979,153.161285 187.565002,153.336838 187.932709,153.762589 
z"/>
<path fill="#E7E8E9" opacity="1.000000" stroke="none" 
	d="
M150.869446,106.436172 
	C151.708954,106.153877 152.597763,106.173073 154.248001,106.165749 
	C155.346268,106.173149 155.683136,106.207069 156.019989,106.240990 
	C155.196609,107.769386 154.373230,109.297783 153.286621,110.956635 
	C152.256897,111.011841 151.490387,110.936592 150.918762,110.880478 
	C150.918762,109.346397 150.918762,108.042023 150.869446,106.436172 
z"/>
<path fill="#F9F9FA" opacity="1.000000" stroke="none" 
	d="
M156.250854,106.132507 
	C155.683136,106.207069 155.346268,106.173149 154.506531,106.068680 
	C154.029144,105.676155 154.043869,105.353691 154.294281,104.547333 
	C155.190521,103.730568 155.840317,103.397209 156.490097,103.063843 
	C156.487305,104.050568 156.484528,105.037292 156.250854,106.132507 
z"/>
<path fill="#4D5EA4" opacity="1.000000" stroke="none" 
	d="
M156.283691,102.793030 
	C155.840317,103.397209 155.190521,103.730568 154.261810,104.307335 
	C153.994827,104.277344 154.006805,104.003952 153.910309,103.333954 
	C154.560318,102.798973 155.318802,102.660591 156.283691,102.793030 
z"/>
<path fill="#243BA3" opacity="1.000000" stroke="none" 
	d="
M164.057373,97.067719 
	C163.925873,97.107567 163.743576,97.092941 163.729675,96.994728 
	C163.898102,96.911140 164.006577,97.013237 164.057373,97.067719 
z"/>
<path fill="#1F41F5" opacity="1.000000" stroke="none" 
	d="
M166.862274,96.877136 
	C167.000122,96.383720 167.232529,95.971115 167.464935,95.558502 
	C167.490631,95.971649 167.516342,96.384796 167.344620,96.957985 
	C167.147186,97.118027 166.956802,96.957947 166.862274,96.877136 
z"/>
</svg>